<?xml version="1.0" encoding="UTF-8" standalone="no"?>
<!DOCTYPE svg PUBLIC "-//W3C//DTD SVG 1.1//EN" "http://www.w3.org/Graphics/SVG/1.1/DTD/svg11.dtd">
<svg version="1.1" xmlns="http://www.w3.org/2000/svg" xmlns:xlink="http://www.w3.org/1999/xlink" preserveAspectRatio="xMidYMid meet" viewBox="365.0608108108067 212.83307845472447 124.03785905335235 157.91891891892524" width="120.04" height="153.92"><defs><path d="M467.74 213.9L468.55 213.98L469.34 214.09L470.13 214.24L470.9 214.41L471.67 214.62L472.42 214.85L473.16 215.11L473.88 215.4L474.59 215.72L475.29 216.07L475.97 216.43L476.63 216.83L477.28 217.25L477.91 217.69L478.52 218.16L479.11 218.65L479.69 219.16L480.24 219.69L480.77 220.24L481.28 220.82L481.77 221.41L482.24 222.02L482.68 222.65L483.1 223.3L483.5 223.96L483.87 224.64L484.21 225.34L484.53 226.05L484.82 226.77L485.08 227.51L485.31 228.26L485.52 229.03L485.69 229.8L485.84 230.59L485.95 231.39L486.03 232.19L486.08 233.01L486.1 233.83L486.1 347.75L486.08 348.58L486.03 349.39L485.95 350.2L485.84 351L485.69 351.78L485.52 352.56L485.31 353.32L485.08 354.07L484.82 354.81L484.53 355.54L484.21 356.25L483.87 356.94L483.5 357.62L483.1 358.29L482.68 358.93L482.24 359.56L481.77 360.18L481.28 360.77L480.77 361.34L480.24 361.89L479.69 362.43L479.11 362.94L478.52 363.43L477.91 363.89L477.28 364.34L476.63 364.76L475.97 365.15L475.29 365.52L474.59 365.86L473.88 366.18L473.16 366.47L472.42 366.73L471.67 366.97L470.9 367.17L470.13 367.35L469.34 367.49L468.55 367.6L467.74 367.69L466.92 367.74L466.1 367.75L386.06 367.75L385.24 367.74L384.42 367.69L383.61 367.6L382.82 367.49L382.03 367.35L381.25 367.17L380.49 366.97L379.74 366.73L379 366.47L378.28 366.18L377.57 365.86L376.87 365.52L376.19 365.15L375.53 364.76L374.88 364.34L374.25 363.89L373.64 363.43L373.05 362.94L372.47 362.43L371.92 361.89L371.39 361.34L370.88 360.77L370.39 360.18L369.92 359.56L369.48 358.93L369.06 358.29L368.66 357.62L368.29 356.94L367.95 356.25L367.63 355.54L367.34 354.81L367.08 354.07L366.85 353.32L366.64 352.56L366.47 351.78L366.32 351L366.21 350.2L366.13 349.39L366.08 348.58L366.06 347.75L366.06 233.83L366.08 233.01L366.13 232.19L366.21 231.39L366.32 230.59L366.47 229.8L366.64 229.03L366.85 228.26L367.08 227.51L367.34 226.77L367.63 226.05L367.95 225.34L368.29 224.64L368.66 223.96L369.06 223.3L369.48 222.65L369.92 222.02L370.39 221.41L370.88 220.82L371.39 220.24L371.92 219.69L372.47 219.16L373.05 218.65L373.64 218.16L374.25 217.69L374.88 217.25L375.53 216.83L376.19 216.43L376.87 216.07L377.57 215.72L378.28 215.4L379 215.11L379.74 214.85L380.49 214.62L381.25 214.41L382.03 214.24L382.82 214.09L383.61 213.98L384.42 213.9L385.24 213.85L386.06 213.83L466.1 213.83L466.92 213.85L467.74 213.9ZM388.37 344.22L388 344.27L387.64 344.34L387.29 344.44L386.96 344.57L386.63 344.72L386.32 344.89L386.03 345.09L385.76 345.31L385.5 345.55L385.26 345.81L385.04 346.08L384.84 346.38L384.67 346.69L384.51 347.01L384.39 347.34L384.29 347.69L384.21 348.05L384.17 348.42L384.15 348.79L384.15 348.81L384.17 349.18L384.21 349.55L384.29 349.91L384.39 350.26L384.51 350.59L384.67 350.92L384.84 351.22L385.04 351.52L385.26 351.79L385.5 352.05L385.76 352.29L386.03 352.51L386.32 352.71L386.63 352.88L386.96 353.04L387.29 353.16L387.64 353.26L388 353.34L388.37 353.38L388.74 353.4L424.22 353.4L424.59 353.38L424.96 353.34L425.32 353.26L425.67 353.16L426 353.04L426.33 352.88L426.63 352.71L426.93 352.51L427.2 352.29L427.46 352.05L427.7 351.79L427.92 351.52L428.12 351.22L428.29 350.92L428.44 350.59L428.57 350.26L428.67 349.91L428.74 349.55L428.79 349.18L428.8 348.81L428.8 348.79L428.79 348.42L428.74 348.05L428.67 347.69L428.57 347.34L428.44 347.01L428.29 346.69L428.12 346.38L427.92 346.08L427.7 345.81L427.46 345.55L427.2 345.31L426.93 345.09L426.63 344.89L426.33 344.72L426 344.57L425.67 344.44L425.32 344.34L424.96 344.27L424.59 344.22L424.22 344.21L388.74 344.21L388.37 344.22ZM388.37 324.22L388 324.27L387.64 324.34L387.29 324.44L386.96 324.57L386.63 324.72L386.32 324.89L386.03 325.09L385.76 325.31L385.5 325.55L385.26 325.81L385.04 326.08L384.84 326.38L384.67 326.69L384.51 327.01L384.39 327.34L384.29 327.69L384.21 328.05L384.17 328.42L384.15 328.79L384.15 328.81L384.17 329.18L384.21 329.55L384.29 329.91L384.39 330.26L384.51 330.59L384.67 330.92L384.84 331.22L385.04 331.52L385.26 331.79L385.5 332.05L385.76 332.29L386.03 332.51L386.32 332.71L386.63 332.88L386.96 333.04L387.29 333.16L387.64 333.26L388 333.34L388.37 333.38L388.74 333.4L424.22 333.4L424.59 333.38L424.96 333.34L425.32 333.26L425.67 333.16L426 333.04L426.33 332.88L426.63 332.71L426.93 332.51L427.2 332.29L427.46 332.05L427.7 331.79L427.92 331.52L428.12 331.22L428.29 330.92L428.44 330.59L428.57 330.26L428.67 329.91L428.74 329.55L428.79 329.18L428.8 328.81L428.8 328.79L428.79 328.42L428.74 328.05L428.67 327.69L428.57 327.34L428.44 327.01L428.29 326.69L428.12 326.38L427.92 326.08L427.7 325.81L427.46 325.55L427.2 325.31L426.93 325.09L426.63 324.89L426.33 324.72L426 324.57L425.67 324.44L425.32 324.34L424.96 324.27L424.59 324.22L424.22 324.21L388.74 324.21L388.37 324.22ZM388.54 304.22L388.33 304.23L388.13 304.26L387.92 304.29L387.72 304.33L387.53 304.38L387.33 304.44L387.15 304.5L386.96 304.58L386.78 304.66L386.6 304.75L386.43 304.84L386.26 304.95L386.1 305.06L385.94 305.17L385.79 305.3L385.64 305.43L385.5 305.56L385.36 305.7L385.23 305.85L385.11 306L384.99 306.16L384.88 306.32L384.78 306.49L384.69 306.66L384.6 306.84L384.52 307.02L384.44 307.21L384.38 307.4L384.32 307.59L384.27 307.79L384.23 307.98L384.2 308.19L384.17 308.39L384.16 308.6L384.15 308.81L384.16 309.02L384.17 309.23L384.2 309.43L384.23 309.64L384.27 309.84L384.32 310.03L384.38 310.22L384.44 310.41L384.52 310.6L384.6 310.78L384.69 310.96L384.78 311.13L384.88 311.3L384.99 311.46L385.11 311.62L385.23 311.77L385.36 311.92L385.5 312.06L385.64 312.2L385.79 312.32L385.94 312.45L386.1 312.56L386.26 312.67L386.43 312.78L386.6 312.87L386.78 312.96L386.96 313.04L387.15 313.12L387.33 313.18L387.53 313.24L387.72 313.29L387.92 313.33L388.13 313.36L388.33 313.39L388.54 313.4L388.75 313.41L463.41 313.41L463.62 313.4L463.83 313.39L464.03 313.36L464.24 313.33L464.44 313.29L464.63 313.24L464.82 313.18L465.01 313.12L465.2 313.04L465.38 312.96L465.56 312.87L465.73 312.78L465.9 312.67L466.06 312.56L466.22 312.45L466.37 312.32L466.52 312.2L466.66 312.06L466.8 311.92L466.92 311.77L467.05 311.62L467.16 311.46L467.27 311.3L467.38 311.13L467.47 310.96L467.56 310.78L467.64 310.6L467.72 310.41L467.78 310.22L467.84 310.03L467.89 309.84L467.93 309.64L467.96 309.43L467.99 309.23L468 309.02L468.01 308.81L468 308.6L467.99 308.39L467.96 308.19L467.93 307.98L467.89 307.79L467.84 307.59L467.78 307.4L467.72 307.21L467.64 307.02L467.56 306.84L467.47 306.66L467.38 306.49L467.27 306.32L467.16 306.16L467.05 306L466.92 305.85L466.8 305.7L466.66 305.56L466.52 305.43L466.37 305.3L466.22 305.17L466.06 305.06L465.9 304.95L465.73 304.84L465.56 304.75L465.38 304.66L465.2 304.58L465.01 304.5L464.82 304.44L464.63 304.38L464.44 304.33L464.24 304.29L464.03 304.26L463.83 304.23L463.62 304.22L463.41 304.22L388.75 304.22L388.54 304.22ZM387.62 244.21L387.44 244.23L387.26 244.25L387.08 244.28L386.9 244.32L386.72 244.37L386.55 244.43L386.39 244.5L386.23 244.57L386.07 244.65L385.92 244.74L385.77 244.83L385.62 244.94L385.49 245.04L385.35 245.16L385.23 245.28L385.1 245.41L384.99 245.54L384.88 245.68L384.78 245.82L384.68 245.97L384.6 246.12L384.51 246.28L384.44 246.44L384.38 246.61L384.32 246.78L384.27 246.95L384.23 247.13L384.2 247.31L384.17 247.49L384.16 247.68L384.15 247.87L384.15 289.87L384.16 290.06L384.17 290.25L384.2 290.43L384.23 290.61L384.27 290.79L384.32 290.96L384.38 291.13L384.44 291.3L384.51 291.46L384.6 291.62L384.68 291.77L384.78 291.92L384.88 292.06L384.99 292.2L385.1 292.33L385.23 292.46L385.35 292.58L385.49 292.69L385.62 292.8L385.77 292.91L385.92 293L386.07 293.09L386.23 293.17L386.39 293.24L386.55 293.31L386.72 293.37L386.9 293.42L387.08 293.46L387.26 293.49L387.44 293.51L387.62 293.53L387.81 293.53L416.1 293.53L416.29 293.53L416.48 293.51L416.66 293.49L416.84 293.46L417.02 293.42L417.19 293.37L417.36 293.31L417.53 293.24L417.69 293.17L417.85 293.09L418 293L418.15 292.91L418.29 292.8L418.43 292.69L418.56 292.58L418.69 292.46L418.81 292.33L418.93 292.2L419.04 292.06L419.14 291.92L419.23 291.77L419.32 291.62L419.4 291.46L419.47 291.3L419.54 291.13L419.6 290.96L419.65 290.79L419.69 290.61L419.72 290.43L419.74 290.25L419.76 290.06L419.76 289.87L419.76 247.87L419.76 247.68L419.74 247.49L419.72 247.31L419.69 247.13L419.65 246.95L419.6 246.78L419.54 246.61L419.47 246.44L419.4 246.28L419.32 246.12L419.23 245.97L419.14 245.82L419.04 245.68L418.93 245.54L418.81 245.41L418.69 245.28L418.56 245.16L418.43 245.04L418.29 244.94L418.15 244.83L418 244.74L417.85 244.65L417.69 244.57L417.53 244.5L417.36 244.43L417.19 244.37L417.02 244.32L416.84 244.28L416.66 244.25L416.48 244.23L416.29 244.21L416.1 244.21L387.81 244.21L387.62 244.21ZM435.68 284.23L435.32 284.28L434.97 284.37L434.63 284.5L434.31 284.65L434.01 284.83L433.73 285.05L433.47 285.28L433.23 285.54L433.02 285.82L432.84 286.12L432.68 286.44L432.56 286.78L432.47 287.13L432.42 287.49L432.4 287.87L432.4 289.74L432.42 290.11L432.47 290.48L432.56 290.83L432.68 291.16L432.84 291.48L433.02 291.79L433.23 292.07L433.47 292.33L433.73 292.56L434.01 292.77L434.31 292.96L434.63 293.11L434.97 293.23L435.32 293.32L435.68 293.38L436.06 293.4L464.35 293.4L464.72 293.38L465.08 293.32L465.43 293.23L465.77 293.11L466.09 292.96L466.39 292.77L466.67 292.56L466.93 292.33L467.17 292.07L467.38 291.79L467.56 291.48L467.72 291.16L467.84 290.83L467.93 290.48L467.99 290.11L468.01 289.74L468.01 287.87L467.99 287.49L467.93 287.13L467.84 286.78L467.72 286.44L467.56 286.12L467.38 285.82L467.17 285.54L466.93 285.28L466.67 285.05L466.39 284.83L466.09 284.65L465.77 284.5L465.43 284.37L465.08 284.28L464.72 284.23L464.35 284.21L436.06 284.21L435.68 284.23ZM435.68 264.23L435.32 264.29L434.97 264.38L434.63 264.5L434.31 264.66L434.01 264.84L433.73 265.05L433.47 265.29L433.23 265.55L433.02 265.83L432.84 266.13L432.68 266.45L432.56 266.79L432.47 267.14L432.42 267.5L432.4 267.87L432.4 269.75L432.42 270.12L432.47 270.48L432.56 270.83L432.68 271.17L432.84 271.49L433.02 271.79L433.23 272.07L433.47 272.33L433.73 272.57L434.01 272.78L434.31 272.96L434.63 273.12L434.97 273.24L435.32 273.33L435.68 273.39L436.06 273.4L464.35 273.4L464.72 273.39L465.08 273.33L465.43 273.24L465.77 273.12L466.09 272.96L466.39 272.78L466.67 272.57L466.93 272.33L467.17 272.07L467.38 271.79L467.56 271.49L467.72 271.17L467.84 270.83L467.93 270.48L467.99 270.12L468.01 269.75L468.01 267.87L467.99 267.5L467.93 267.14L467.84 266.79L467.72 266.45L467.56 266.13L467.38 265.83L467.17 265.55L466.93 265.29L466.67 265.05L466.39 264.84L466.09 264.66L465.77 264.5L465.43 264.38L465.08 264.29L464.72 264.23L464.35 264.22L436.06 264.22L435.68 264.23ZM435.68 244.23L435.32 244.28L434.97 244.37L434.63 244.5L434.31 244.65L434.01 244.83L433.73 245.04L433.47 245.28L433.23 245.54L433.02 245.82L432.84 246.12L432.68 246.44L432.56 246.78L432.47 247.13L432.42 247.49L432.4 247.87L432.4 249.74L432.42 250.11L432.47 250.48L432.56 250.83L432.68 251.16L432.84 251.48L433.02 251.78L433.23 252.07L433.47 252.33L433.73 252.56L434.01 252.77L434.31 252.96L434.63 253.11L434.97 253.23L435.32 253.32L435.68 253.38L436.06 253.4L464.35 253.4L464.72 253.38L465.08 253.32L465.43 253.23L465.77 253.11L466.09 252.96L466.39 252.77L466.67 252.56L466.93 252.33L467.17 252.07L467.38 251.78L467.56 251.48L467.72 251.16L467.84 250.83L467.93 250.48L467.99 250.11L468.01 249.74L468.01 247.87L467.99 247.49L467.93 247.13L467.84 246.78L467.72 246.44L467.56 246.12L467.38 245.82L467.17 245.54L466.93 245.28L466.67 245.04L466.39 244.83L466.09 244.65L465.77 244.5L465.43 244.37L465.08 244.28L464.72 244.23L464.35 244.21L436.06 244.21L435.68 244.23ZM388.53 224.21L388.32 224.23L388.11 224.25L387.9 224.29L387.7 224.33L387.49 224.38L387.3 224.44L387.1 224.51L386.91 224.59L386.73 224.68L386.55 224.77L386.37 224.87L386.2 224.98L386.04 225.09L385.87 225.22L385.72 225.35L385.57 225.48L385.43 225.63L385.29 225.77L385.16 225.93L385.04 226.09L384.92 226.25L384.82 226.43L384.71 226.6L384.62 226.78L384.54 226.97L384.46 227.16L384.39 227.35L384.33 227.55L384.28 227.75L384.23 227.95L384.2 228.16L384.17 228.37L384.16 228.59L384.15 228.8L384.16 229.02L384.17 229.23L384.2 229.44L384.23 229.65L384.28 229.86L384.33 230.06L384.39 230.26L384.46 230.45L384.54 230.64L384.62 230.82L384.71 231L384.82 231.18L384.92 231.35L385.04 231.52L385.16 231.68L385.29 231.83L385.43 231.98L385.57 232.12L385.72 232.26L385.87 232.39L386.04 232.51L386.2 232.63L386.37 232.74L386.55 232.84L386.73 232.93L386.91 233.02L387.1 233.09L387.3 233.16L387.49 233.22L387.7 233.28L387.9 233.32L388.11 233.35L388.32 233.38L388.53 233.39L388.75 233.4L463.41 233.4L463.63 233.39L463.84 233.38L464.05 233.35L464.26 233.32L464.46 233.28L464.67 233.22L464.86 233.16L465.06 233.09L465.25 233.02L465.43 232.93L465.61 232.84L465.79 232.74L465.96 232.63L466.12 232.51L466.28 232.39L466.44 232.26L466.59 232.12L466.73 231.98L466.87 231.83L467 231.68L467.12 231.52L467.23 231.35L467.34 231.18L467.44 231L467.54 230.82L467.62 230.64L467.7 230.45L467.77 230.26L467.83 230.06L467.88 229.86L467.93 229.65L467.96 229.44L467.99 229.23L468 229.02L468.01 228.8L468 228.59L467.99 228.37L467.96 228.16L467.93 227.95L467.88 227.75L467.83 227.55L467.77 227.35L467.7 227.16L467.62 226.97L467.54 226.78L467.44 226.6L467.34 226.43L467.23 226.25L467.12 226.09L467 225.93L466.87 225.77L466.73 225.63L466.59 225.48L466.44 225.35L466.28 225.22L466.12 225.09L465.96 224.98L465.79 224.87L465.61 224.77L465.43 224.68L465.25 224.59L465.06 224.51L464.86 224.44L464.67 224.38L464.46 224.33L464.26 224.29L464.05 224.25L463.84 224.23L463.63 224.21L463.41 224.21L388.75 224.21L388.53 224.21Z" id="a3m5IXbN8r"></path><path d="M441.44 356.27L441.66 344.75L449.92 352.02L441.44 356.27ZM451.26 350.51L443.59 343.13L464.17 321.75L471.84 329.13L451.26 350.51ZM451.26 342.44L462.79 330.46L460.3 328.06L448.76 340.05L451.26 342.44Z" id="b4MsDQwf4"></path></defs><g><g><use xlink:href="#a3m5IXbN8r" opacity="1" fill="#800000" fill-opacity="1"></use></g><g><use xlink:href="#b4MsDQwf4" opacity="1" fill="#ffffff" fill-opacity="1"></use><g><use xlink:href="#b4MsDQwf4" opacity="1" fill-opacity="0" stroke="#000000" stroke-width="0" stroke-opacity="1"></use></g></g></g></svg>