<?xml version="1.0" encoding="UTF-8" standalone="no"?>
<!DOCTYPE svg PUBLIC "-//W3C//DTD SVG 1.1//EN" "http://www.w3.org/Graphics/SVG/1.1/DTD/svg11.dtd">
<svg version="1.1" xmlns="http://www.w3.org/2000/svg" xmlns:xlink="http://www.w3.org/1999/xlink" preserveAspectRatio="xMidYMid meet" viewBox="-1 -0.9999999999999858 204.00000000000028 389.0000000000001" width="200" height="385"><defs><path d="M108.2 0.33L112.23 0.74L116.21 1.31L120.14 2.03L124.02 2.91L127.84 3.93L131.59 5.1L135.29 6.41L138.91 7.86L142.46 9.45L145.94 11.17L149.34 13.02L152.66 14.99L155.89 17.09L159.04 19.3L162.1 21.64L165.06 24.08L167.93 26.64L170.7 29.3L173.36 32.07L175.92 34.94L178.36 37.9L180.7 40.96L182.91 44.11L185.01 47.34L186.98 50.66L188.83 54.06L190.55 57.54L192.14 61.09L193.59 64.71L194.9 68.41L196.07 72.16L197.09 75.98L197.97 79.86L198.69 83.79L199.26 87.77L199.67 91.8L199.92 95.88L200 100L199.92 104.12L199.67 108.2L199.26 112.23L198.69 116.21L197.97 120.14L197.09 124.02L196.07 127.84L194.9 131.59L193.59 135.29L192.14 138.91L190.55 142.46L188.83 145.94L186.98 149.34L185.01 152.66L182.91 155.89L180.7 159.04L178.36 162.1L175.92 165.06L173.36 167.93L170.7 170.7L167.93 173.36L165.06 175.92L162.1 178.36L159.04 180.7L155.89 182.91L152.66 185.01L149.34 186.98L145.94 188.83L142.46 190.55L138.91 192.14L135.29 193.59L131.59 194.9L127.84 196.07L124.02 197.09L120.14 197.97L116.21 198.69L112.23 199.26L108.2 199.67L104.12 199.92L100 200L95.88 199.92L91.8 199.67L87.77 199.26L83.79 198.69L79.86 197.97L75.98 197.09L72.16 196.07L68.41 194.9L64.71 193.59L61.09 192.14L57.54 190.55L54.06 188.83L50.66 186.98L47.34 185.01L44.11 182.91L40.96 180.7L37.9 178.36L34.94 175.92L32.07 173.36L29.3 170.7L26.64 167.93L24.08 165.06L21.64 162.1L19.3 159.04L17.09 155.89L14.99 152.66L13.02 149.34L11.17 145.94L9.45 142.46L7.86 138.91L6.41 135.29L5.1 131.59L3.93 127.84L2.91 124.02L2.03 120.14L1.31 116.21L0.74 112.23L0.33 108.2L0.08 104.12L0 100L0.08 95.88L0.33 91.8L0.74 87.77L1.31 83.79L2.03 79.86L2.91 75.98L3.93 72.16L5.1 68.41L6.41 64.71L7.86 61.09L9.45 57.54L11.17 54.06L13.02 50.66L14.99 47.34L17.09 44.11L19.3 40.96L21.64 37.9L24.08 34.94L26.64 32.07L29.3 29.3L32.07 26.64L34.94 24.08L37.9 21.64L40.96 19.3L44.11 17.09L47.34 14.99L50.66 13.02L54.06 11.17L57.54 9.45L61.09 7.86L64.71 6.41L68.41 5.1L72.16 3.93L75.98 2.91L79.86 2.03L83.79 1.31L87.77 0.74L91.8 0.33L95.88 0.08L100 0L104.12 0.08L108.2 0.33ZM118.63 136.49L117.27 136.8L116.92 136.91L115.95 136.56L114.81 136.31L113.62 136.23L112.43 136.31L111.29 136.56L110.18 136.96L109.13 137.51L108.13 138.19L107.19 139L106.81 139.41L106.43 139L105.49 138.19L104.49 137.51L103.44 136.96L102.33 136.56L101.19 136.31L100 136.23L98.81 136.31L97.67 136.56L96.56 136.96L95.51 137.51L94.51 138.19L93.57 139L93.56 139.02L93.54 139L92.61 138.19L91.61 137.51L90.55 136.96L89.45 136.56L88.3 136.31L87.12 136.23L85.93 136.31L84.78 136.56L83.68 136.96L83.51 137.05L82.73 136.8L81.37 136.49L79.94 136.3L78.47 136.23L76.99 136.3L75.57 136.49L74.2 136.8L72.91 137.22L71.69 137.74L70.56 138.36L69.52 139.07L68.6 139.86L67.79 140.73L67.1 141.67L66.56 142.66L66.15 143.71L65.9 144.8L65.82 145.93L65.9 147.06L66.15 148.15L66.56 149.2L67.1 150.2L67.79 151.13L68.6 152L69.52 152.79L70.56 153.5L71.69 154.12L72.91 154.65L74.2 155.07L75.57 155.38L76.92 155.56L77.2 156.52L77.72 157.83L78.33 159.07L79.04 160.21L79.83 161.24L80.69 162.17L81.62 162.98L82.62 163.67L83.68 164.21L84.78 164.61L85.93 164.86L87.12 164.95L88.3 164.86L89.45 164.61L90.55 164.21L91.61 163.67L92.61 162.98L93.54 162.17L93.56 162.16L93.57 162.17L94.51 162.98L95.51 163.67L96.56 164.21L97.67 164.61L98.81 164.86L100 164.95L101.19 164.86L102.33 164.61L103.44 164.21L104.49 163.67L105.49 162.98L106.43 162.17L106.81 161.76L107.19 162.17L108.13 162.98L109.13 163.67L110.18 164.21L111.29 164.61L112.43 164.86L113.62 164.95L114.81 164.86L115.95 164.61L117.06 164.21L118.11 163.67L119.11 162.98L120.05 162.17L120.91 161.24L121.7 160.21L122.4 159.07L123.02 157.83L123.53 156.52L123.85 155.45L124.43 155.38L125.8 155.07L127.09 154.65L128.31 154.12L129.44 153.5L130.48 152.79L131.4 152L132.21 151.13L132.9 150.2L133.44 149.2L133.85 148.15L134.1 147.06L134.18 145.93L134.1 144.8L133.85 143.71L133.44 142.66L132.9 141.67L132.21 140.73L131.4 139.86L130.48 139.07L129.44 138.36L128.31 137.74L127.09 137.22L125.8 136.8L124.43 136.49L123.01 136.3L121.53 136.23L120.06 136.3L118.63 136.49ZM47.66 63.2L46.78 63.25L45.91 63.35L45.05 63.48L44.2 63.65L43.37 63.85L42.55 64.09L41.75 64.36L40.96 64.67L40.19 65L39.43 65.37L38.69 65.77L37.98 66.19L37.28 66.65L36.6 67.13L35.95 67.64L35.31 68.18L34.7 68.74L34.11 69.33L33.55 69.94L33.02 70.57L32.51 71.23L32.02 71.91L31.57 72.61L31.14 73.32L30.74 74.06L30.37 74.81L30.04 75.59L29.73 76.37L29.46 77.18L29.22 78L29.02 78.83L28.85 79.68L28.72 80.53L28.62 81.4L28.57 82.28L28.55 83.18L28.55 89.12L28.57 90.01L28.62 90.89L28.72 91.76L28.85 92.62L29.02 93.47L29.22 94.3L29.46 95.12L29.73 95.92L30.04 96.71L30.37 97.48L30.74 98.24L31.14 98.97L31.57 99.69L32.02 100.39L32.51 101.07L33.02 101.72L33.55 102.36L34.11 102.97L34.7 103.55L35.31 104.12L35.95 104.65L36.6 105.16L37.28 105.65L37.98 106.1L38.69 106.53L39.43 106.93L40.19 107.29L40.96 107.63L41.75 107.94L42.55 108.21L43.37 108.44L44.2 108.65L45.05 108.82L45.91 108.95L46.78 109.04L47.66 109.1L48.55 109.12L72.87 109.12L73.76 109.1L74.64 109.04L75.51 108.95L76.37 108.82L77.22 108.65L78.05 108.44L78.87 108.21L79.67 107.94L80.46 107.63L81.23 107.29L81.99 106.93L82.72 106.53L83.44 106.1L84.14 105.65L84.82 105.16L85.47 104.65L86.11 104.12L86.72 103.55L87.3 102.97L87.87 102.36L88.4 101.72L88.91 101.07L89.4 100.39L89.85 99.69L90.28 98.97L90.68 98.24L91.04 97.48L91.38 96.71L91.69 95.92L91.96 95.12L92.19 94.3L92.22 94.19L107.78 94.19L107.81 94.3L108.04 95.12L108.31 95.92L108.62 96.71L108.96 97.48L109.32 98.24L109.72 98.97L110.15 99.69L110.6 100.39L111.09 101.07L111.6 101.72L112.13 102.36L112.7 102.97L113.28 103.55L113.89 104.12L114.53 104.65L115.18 105.16L115.86 105.65L116.56 106.1L117.28 106.53L118.01 106.93L118.77 107.29L119.54 107.63L120.33 107.94L121.13 108.21L121.95 108.44L122.78 108.65L123.63 108.82L124.49 108.95L125.36 109.04L126.24 109.1L127.13 109.12L151.45 109.12L152.34 109.1L153.22 109.04L154.09 108.95L154.95 108.82L155.8 108.65L156.63 108.44L157.45 108.21L158.25 107.94L159.04 107.63L159.81 107.29L160.57 106.93L161.31 106.53L162.02 106.1L162.72 105.65L163.4 105.16L164.05 104.65L164.69 104.12L165.3 103.55L165.89 102.97L166.45 102.36L166.98 101.72L167.49 101.07L167.98 100.39L168.43 99.69L168.86 98.97L169.26 98.24L169.63 97.48L169.96 96.71L170.27 95.92L170.54 95.12L170.78 94.3L170.98 93.47L171.15 92.62L171.28 91.76L171.38 90.89L171.43 90.01L171.45 89.12L171.45 83.18L171.43 82.28L171.38 81.4L171.28 80.53L171.15 79.68L170.98 78.83L170.78 78L170.54 77.18L170.27 76.37L169.96 75.59L169.63 74.81L169.26 74.06L168.86 73.32L168.43 72.61L167.98 71.91L167.49 71.23L166.98 70.57L166.45 69.94L165.89 69.33L165.3 68.74L164.69 68.18L164.05 67.64L163.4 67.13L162.72 66.65L162.02 66.19L161.31 65.77L160.57 65.37L159.81 65L159.04 64.67L158.25 64.36L157.45 64.09L156.63 63.85L155.8 63.65L154.95 63.48L154.09 63.35L153.22 63.25L152.34 63.2L151.45 63.18L127.13 63.18L126.24 63.2L125.36 63.25L124.49 63.35L123.63 63.48L122.78 63.65L121.95 63.85L121.13 64.09L120.33 64.36L119.54 64.67L118.77 65L118.01 65.37L117.28 65.77L116.56 66.19L115.86 66.65L115.18 67.13L114.53 67.64L113.89 68.18L113.28 68.74L112.7 69.33L112.13 69.94L111.6 70.57L111.09 71.23L110.6 71.91L110.15 72.61L109.72 73.32L109.32 74.06L108.96 74.81L108.62 75.59L108.31 76.37L108.04 77.18L107.81 78L107.6 78.83L107.43 79.68L107.3 80.53L107.21 81.4L107.15 82.28L107.13 83.18L107.13 86.15L92.87 86.15L92.87 83.18L92.85 82.28L92.79 81.4L92.7 80.53L92.57 79.68L92.4 78.83L92.19 78L91.96 77.18L91.69 76.37L91.38 75.59L91.04 74.81L90.68 74.06L90.28 73.32L89.85 72.61L89.4 71.91L88.91 71.23L88.4 70.57L87.87 69.94L87.3 69.33L86.72 68.74L86.11 68.18L85.47 67.64L84.82 67.13L84.14 66.65L83.44 66.19L82.72 65.77L81.99 65.37L81.23 65L80.46 64.67L79.67 64.36L78.87 64.09L78.05 63.85L77.22 63.65L76.37 63.48L75.51 63.35L74.64 63.25L73.76 63.2L72.87 63.18L48.55 63.18L47.66 63.2Z" id="a239Uw8Km"></path><path d="M179.02 185C190.61 185 200 194.39 200 205.98C200 241.78 200 328.22 200 364.02C200 375.61 190.61 385 179.02 385C143.22 385 56.78 385 20.98 385C9.39 385 0 375.61 0 364.02C0 328.22 0 241.78 0 205.98C0 194.39 9.39 185 20.98 185C56.78 185 143.22 185 179.02 185Z" id="c6tY3vNH5"></path></defs><g><g><use xlink:href="#a239Uw8Km" opacity="1" fill="#800000" fill-opacity="1"></use></g><g><use xlink:href="#c6tY3vNH5" opacity="1" fill="#800000" fill-opacity="1"></use></g></g></svg>