<?xml version="1.0" encoding="UTF-8" standalone="no"?>
<!DOCTYPE svg PUBLIC "-//W3C//DTD SVG 1.1//EN" "http://www.w3.org/Graphics/SVG/1.1/DTD/svg11.dtd">
<svg version="1.1" xmlns="http://www.w3.org/2000/svg" xmlns:xlink="http://www.w3.org/1999/xlink" preserveAspectRatio="xMidYMid meet" viewBox="224.73474257991444 103.52916925374953 370.57692878887116 434.5427145613646" width="366.58" height="430.54"><defs><path d="M280.58 108.25L282.62 108.45L284.64 108.74L286.63 109.11L288.6 109.55L290.53 110.07L292.43 110.66L294.31 111.33L296.14 112.06L297.94 112.87L299.71 113.74L301.43 114.68L303.11 115.68L304.75 116.74L306.35 117.86L307.9 119.05L309.4 120.29L310.85 121.58L312.25 122.93L313.6 124.33L314.9 125.79L316.14 127.29L317.32 128.84L318.45 130.43L319.51 132.07L320.51 133.76L321.45 135.48L322.32 137.24L323.12 139.04L323.86 140.88L324.52 142.75L325.11 144.66L325.63 146.59L326.08 148.56L326.44 150.55L326.73 152.57L326.94 154.61L327.07 156.68L327.11 158.77L327.07 160.85L326.94 162.92L326.73 164.96L326.44 166.98L326.08 168.98L325.63 170.94L325.11 172.88L324.52 174.78L323.86 176.65L323.12 178.49L322.32 180.29L321.45 182.05L320.51 183.77L319.51 185.46L318.45 187.1L317.32 188.69L316.14 190.24L314.9 191.74L313.6 193.2L312.25 194.6L310.85 195.95L309.4 197.24L307.9 198.48L306.35 199.67L304.75 200.79L303.11 201.85L301.43 202.85L299.71 203.79L297.94 204.66L296.14 205.47L294.31 206.2L292.43 206.87L290.53 207.46L288.6 207.98L286.63 208.42L284.64 208.79L282.62 209.08L280.58 209.28L278.51 209.41L276.42 209.45L274.33 209.41L272.27 209.28L270.22 209.08L268.2 208.79L266.21 208.42L264.25 207.98L262.31 207.46L260.41 206.87L258.54 206.2L256.7 205.47L254.9 204.66L253.14 203.79L251.41 202.85L249.73 201.85L248.09 200.79L246.49 199.67L244.94 198.48L243.44 197.24L241.99 195.95L240.59 194.6L239.24 193.2L237.94 191.74L236.7 190.24L235.52 188.69L234.4 187.1L233.33 185.46L232.33 183.77L231.4 182.05L230.52 180.29L229.72 178.49L228.99 176.65L228.32 174.78L227.73 172.88L227.21 170.94L226.77 168.98L226.4 166.98L226.11 164.96L225.9 162.92L225.78 160.85L225.73 158.77L225.78 156.68L225.9 154.61L226.11 152.57L226.4 150.55L226.77 148.56L227.21 146.59L227.73 144.66L228.32 142.75L228.99 140.88L229.72 139.04L230.52 137.24L231.4 135.48L232.33 133.76L233.33 132.07L234.4 130.43L235.52 128.84L236.7 127.29L237.94 125.79L239.24 124.33L240.59 122.93L241.99 121.58L243.44 120.29L244.94 119.05L246.49 117.86L248.09 116.74L249.73 115.68L251.41 114.68L253.14 113.74L254.9 112.87L256.7 112.06L258.54 111.33L260.41 110.66L262.31 110.07L264.25 109.55L266.21 109.11L268.2 108.74L270.22 108.45L272.27 108.25L274.33 108.12L276.42 108.08L278.51 108.12L280.58 108.25ZM284.98 177.5L284.44 177.28L283.32 177.13L282.21 177.28L281.18 177.7L280.24 178.37L279.87 178.77L279.5 178.37L278.57 177.7L277.53 177.28L276.42 177.13L275.31 177.28L274.27 177.7L273.34 178.37L273.16 178.57L272.97 178.37L272.04 177.7L271 177.28L269.89 177.13L268.78 177.28L268.08 177.56L266.98 177.26L265.51 177.13L264.04 177.26L262.69 177.63L261.5 178.21L260.5 178.97L259.75 179.88L259.26 180.92L259.1 182.05L259.26 183.17L259.75 184.21L260.5 185.12L261.5 185.88L262.69 186.46L264.04 186.83L264.73 186.9L264.81 187.24L265.32 188.47L265.99 189.55L266.81 190.44L267.74 191.11L268.78 191.54L269.89 191.68L271 191.54L272.04 191.11L272.97 190.44L273.16 190.24L273.34 190.44L274.27 191.11L275.31 191.54L276.42 191.68L277.53 191.54L278.57 191.11L279.5 190.44L279.87 190.04L280.24 190.44L281.18 191.11L282.21 191.54L283.32 191.68L284.44 191.54L285.47 191.11L286.41 190.44L287.22 189.55L287.9 188.47L288.41 187.24L288.5 186.86L288.8 186.83L290.15 186.46L291.34 185.88L292.34 185.12L293.09 184.21L293.58 183.17L293.75 182.05L293.58 180.92L293.09 179.88L292.34 178.97L291.34 178.21L290.15 177.63L288.8 177.26L287.34 177.13L285.87 177.26L284.98 177.5ZM249.42 140.14L248.52 140.26L247.65 140.46L246.8 140.73L246 141.08L245.23 141.48L244.5 141.96L243.81 142.48L243.17 143.07L242.59 143.71L242.06 144.39L241.59 145.12L241.18 145.89L240.84 146.7L240.57 147.54L240.37 148.42L240.25 149.32L240.2 150.24L240.2 153.25L240.25 154.17L240.37 155.07L240.57 155.95L240.84 156.79L241.18 157.6L241.59 158.37L242.06 159.1L242.59 159.78L243.17 160.42L243.81 161L244.5 161.53L245.23 162L246 162.41L246.8 162.75L247.65 163.03L248.52 163.23L249.42 163.35L250.34 163.39L262.67 163.39L263.59 163.35L264.49 163.23L265.37 163.03L266.21 162.75L267.02 162.41L267.79 162L268.52 161.53L269.2 161L269.84 160.42L270.42 159.78L270.95 159.1L271.42 158.37L271.83 157.6L272.17 156.79L272.45 155.95L272.47 155.82L280.37 155.82L280.4 155.95L280.67 156.79L281.01 157.6L281.42 158.37L281.89 159.1L282.42 159.78L283 160.42L283.64 161L284.33 161.53L285.06 162L285.83 162.41L286.63 162.75L287.48 163.03L288.35 163.23L289.25 163.35L290.17 163.39L302.5 163.39L303.42 163.35L304.32 163.23L305.2 163.03L306.04 162.75L306.85 162.41L307.62 162L308.35 161.53L309.03 161L309.67 160.42L310.25 159.78L310.78 159.1L311.25 158.37L311.66 157.6L312 156.79L312.28 155.95L312.47 155.07L312.6 154.17L312.64 153.25L312.64 150.24L312.6 149.32L312.47 148.42L312.28 147.54L312 146.7L311.66 145.89L311.25 145.12L310.78 144.39L310.25 143.71L309.67 143.07L309.03 142.48L308.35 141.96L307.62 141.48L306.85 141.08L306.04 140.73L305.2 140.46L304.32 140.26L303.42 140.14L302.5 140.1L290.17 140.1L289.25 140.14L288.35 140.26L287.48 140.46L286.63 140.73L285.83 141.08L285.06 141.48L284.33 141.96L283.64 142.48L283 143.07L282.42 143.71L281.89 144.39L281.42 145.12L281.01 145.89L280.67 146.7L280.4 147.54L280.2 148.42L280.08 149.32L280.03 150.24L280.03 151.74L272.81 151.74L272.81 150.24L272.77 149.32L272.64 148.42L272.45 147.54L272.17 146.7L271.83 145.89L271.42 145.12L270.95 144.39L270.42 143.71L269.84 143.07L269.2 142.48L268.52 141.96L267.79 141.48L267.02 141.08L266.21 140.73L265.37 140.46L264.49 140.26L263.59 140.14L262.67 140.1L250.34 140.1L249.42 140.14Z" id="a5xNMlWPXf"></path><path d="M316.47 201.85C322.35 201.85 327.11 206.61 327.11 212.48C327.11 230.63 327.11 274.44 327.11 292.59C327.11 298.46 322.35 303.22 316.47 303.22C298.33 303.22 254.52 303.22 236.37 303.22C230.5 303.22 225.73 298.46 225.73 292.59C225.73 274.44 225.73 230.63 225.73 212.48C225.73 206.61 230.5 201.85 236.37 201.85C254.52 201.85 298.33 201.85 316.47 201.85Z" id="b19UZSsZ29"></path><path d="M592.31 286.1C592.31 303.08 578.4 316.87 561.27 316.87C544.13 316.87 530.22 303.08 530.22 286.1C530.22 269.11 544.13 255.32 561.27 255.32C578.4 255.32 592.31 269.11 592.31 286.1Z" id="bUtxfYxzx"></path><path d="M583.5 138.07C583.5 156.58 568.47 171.61 549.96 171.61C531.45 171.61 516.42 156.58 516.42 138.07C516.42 119.56 531.45 104.53 549.96 104.53C568.47 104.53 583.5 119.56 583.5 138.07Z" id="b1G0JMtehF"></path><path d="M576.46 166.58C580.35 166.58 583.5 169.73 583.5 173.61C583.5 185.62 583.5 214.61 583.5 226.62C583.5 230.5 580.35 233.65 576.46 233.65C564.45 233.65 535.46 233.65 523.45 233.65C519.57 233.65 516.42 230.5 516.42 226.62C516.42 214.61 516.42 185.62 516.42 173.61C516.42 169.73 519.57 166.58 523.45 166.58C535.46 166.58 564.45 166.58 576.46 166.58Z" id="a9m5DKn12"></path><path d="M578.51 280.42C578.51 297.4 564.6 311.2 547.46 311.2C530.33 311.2 516.42 297.4 516.42 280.42C516.42 263.43 530.33 249.64 547.46 249.64C564.6 249.64 578.51 263.43 578.51 280.42Z" id="c1FQl7IOjH"></path><path d="M579.02 319.99C582.78 319.99 585.82 323.03 585.82 326.79C585.82 338.85 585.82 368.21 585.82 380.26C585.82 384.02 582.78 387.07 579.02 387.07C567.41 387.07 539.39 387.07 527.78 387.07C524.02 387.07 520.98 384.02 520.98 380.26C520.98 368.21 520.98 338.85 520.98 326.79C520.98 323.03 524.02 319.99 527.78 319.99C539.39 319.99 567.41 319.99 579.02 319.99Z" id="b5yF2XnNa"></path><path d="M524.64 280.42C526.16 280.42 527.38 281.64 527.38 283.16C527.38 294.13 527.38 324.32 527.38 335.3C527.38 336.81 526.16 338.04 524.64 338.04C523 338.04 520.8 338.04 519.16 338.04C517.65 338.04 516.42 336.81 516.42 335.3C516.42 324.32 516.42 294.13 516.42 283.16C516.42 281.64 517.65 280.42 519.16 280.42C520.8 280.42 523 280.42 524.64 280.42Z" id="aoKP41Ab"></path><path d="M588.86 280.49C590.77 280.49 592.31 282.03 592.31 283.94C592.31 293.11 592.31 317.19 592.31 326.36C592.31 328.27 590.77 329.81 588.86 329.81C586.79 329.81 584.03 329.81 581.96 329.81C580.05 329.81 578.51 328.27 578.51 326.36C578.51 317.19 578.51 293.11 578.51 283.94C578.51 282.03 580.05 280.49 581.96 280.49C584.03 280.49 586.79 280.49 588.86 280.49Z" id="a3XYnRIgi"></path><path d="M587.64 291.48C587.64 309.99 572.61 325.02 554.1 325.02C535.59 325.02 520.56 309.99 520.56 291.48C520.56 272.97 535.59 257.94 554.1 257.94C572.61 257.94 587.64 272.97 587.64 291.48Z" id="b6kXHgMqd"></path><path d="M547.24 255.07L545.71 254.9L544.14 254.85L542.56 254.9L541.04 255.07L539.56 255.34L538.14 255.71L536.8 256.17L535.53 256.72L534.34 257.35L533.24 258.06L532.25 258.84L531.36 259.69L530.59 260.59L529.94 261.55L529.42 262.56L529.41 262.6L527.38 262.6L527.88 261.67L528.51 260.71L529.25 259.78L530.08 258.91L531 258.08L532.01 257.31L533.09 256.59L534.25 255.94L535.48 255.34L536.77 254.82L538.13 254.37L539.54 253.99L541 253.69L542.5 253.47L544.04 253.33L545.62 253.29L547.2 253.33L548.63 253.46L548.63 255.32L548.63 255.32L547.24 255.07Z" id="amZk9robs"></path><path d="M280.58 340.1L282.62 340.31L284.64 340.59L286.63 340.96L288.6 341.4L290.53 341.92L292.43 342.52L294.31 343.18L296.14 343.92L297.94 344.72L299.71 345.59L301.43 346.53L303.11 347.53L304.75 348.59L306.35 349.71L307.9 350.9L309.4 352.14L310.85 353.43L312.25 354.78L313.6 356.18L314.9 357.64L316.14 359.14L317.32 360.69L318.45 362.28L319.51 363.92L320.51 365.61L321.45 367.33L322.32 369.09L323.12 370.89L323.86 372.73L324.52 374.6L325.11 376.51L325.63 378.44L326.08 380.41L326.44 382.4L326.73 384.42L326.94 386.46L327.07 388.53L327.11 390.62L327.07 392.7L326.94 394.77L326.73 396.81L326.44 398.83L326.08 400.83L325.63 402.79L325.11 404.73L324.52 406.63L323.86 408.5L323.12 410.34L322.32 412.14L321.45 413.9L320.51 415.62L319.51 417.31L318.45 418.95L317.32 420.54L316.14 422.09L314.9 423.59L313.6 425.05L312.25 426.45L310.85 427.8L309.4 429.09L307.9 430.33L306.35 431.52L304.75 432.64L303.11 433.7L301.43 434.7L299.71 435.64L297.94 436.51L296.14 437.32L294.31 438.05L292.43 438.72L290.53 439.31L288.6 439.83L286.63 440.27L284.64 440.64L282.62 440.93L280.58 441.13L278.51 441.26L276.42 441.3L274.33 441.26L272.27 441.13L270.22 440.93L268.2 440.64L266.21 440.27L264.25 439.83L262.31 439.31L260.41 438.72L258.54 438.05L256.7 437.32L254.9 436.51L253.14 435.64L251.41 434.7L249.73 433.7L248.09 432.64L246.49 431.52L244.94 430.33L243.44 429.09L241.99 427.8L240.59 426.45L239.24 425.05L237.94 423.59L236.7 422.09L235.52 420.54L234.4 418.95L233.33 417.31L232.33 415.62L231.4 413.9L230.52 412.14L229.72 410.34L228.99 408.5L228.32 406.63L227.73 404.73L227.21 402.79L226.77 400.83L226.4 398.83L226.11 396.81L225.9 394.77L225.78 392.7L225.73 390.62L225.78 388.53L225.9 386.46L226.11 384.42L226.4 382.4L226.77 380.41L227.21 378.44L227.73 376.51L228.32 374.6L228.99 372.73L229.72 370.89L230.52 369.09L231.4 367.33L232.33 365.61L233.33 363.92L234.4 362.28L235.52 360.69L236.7 359.14L237.94 357.64L239.24 356.18L240.59 354.78L241.99 353.43L243.44 352.14L244.94 350.9L246.49 349.71L248.09 348.59L249.73 347.53L251.41 346.53L253.14 345.59L254.9 344.72L256.7 343.92L258.54 343.18L260.41 342.52L262.31 341.92L264.25 341.4L266.21 340.96L268.2 340.59L270.22 340.31L272.27 340.1L274.33 339.97L276.42 339.93L278.51 339.97L280.58 340.1ZM284.98 409.35L284.44 409.13L283.32 408.98L282.21 409.13L281.18 409.55L280.24 410.22L279.87 410.62L279.5 410.22L278.57 409.55L277.53 409.13L276.42 408.98L275.31 409.13L274.27 409.55L273.34 410.22L273.16 410.42L272.97 410.22L272.04 409.55L271 409.13L269.89 408.98L268.78 409.13L268.08 409.41L266.98 409.11L265.51 408.98L264.04 409.11L262.69 409.48L261.5 410.06L260.5 410.82L259.75 411.73L259.26 412.77L259.1 413.9L259.26 415.02L259.75 416.06L260.5 416.97L261.5 417.73L262.69 418.31L264.04 418.68L264.73 418.75L264.81 419.09L265.32 420.32L265.99 421.4L266.81 422.29L267.74 422.96L268.78 423.39L269.89 423.53L271 423.39L272.04 422.96L272.97 422.29L273.16 422.09L273.34 422.29L274.27 422.96L275.31 423.39L276.42 423.53L277.53 423.39L278.57 422.96L279.5 422.29L279.87 421.89L280.24 422.29L281.18 422.96L282.21 423.39L283.32 423.53L284.44 423.39L285.47 422.96L286.41 422.29L287.22 421.4L287.9 420.32L288.41 419.09L288.5 418.71L288.8 418.68L290.15 418.31L291.34 417.73L292.34 416.97L293.09 416.06L293.58 415.02L293.75 413.9L293.58 412.77L293.09 411.73L292.34 410.82L291.34 410.06L290.15 409.48L288.8 409.11L287.34 408.98L285.87 409.11L284.98 409.35ZM249.42 371.99L248.52 372.11L247.65 372.31L246.8 372.58L246 372.93L245.23 373.33L244.5 373.81L243.81 374.33L243.17 374.92L242.59 375.56L242.06 376.24L241.59 376.97L241.18 377.74L240.84 378.55L240.57 379.39L240.37 380.27L240.25 381.17L240.2 382.09L240.2 385.1L240.25 386.02L240.37 386.92L240.57 387.8L240.84 388.64L241.18 389.45L241.59 390.22L242.06 390.95L242.59 391.63L243.17 392.27L243.81 392.85L244.5 393.38L245.23 393.86L246 394.26L246.8 394.6L247.65 394.88L248.52 395.08L249.42 395.2L250.34 395.24L262.67 395.24L263.59 395.2L264.49 395.08L265.37 394.88L266.21 394.6L267.02 394.26L267.79 393.86L268.52 393.38L269.2 392.85L269.84 392.27L270.42 391.63L270.95 390.95L271.42 390.22L271.83 389.45L272.17 388.64L272.45 387.8L272.47 387.67L280.37 387.67L280.4 387.8L280.67 388.64L281.01 389.45L281.42 390.22L281.89 390.95L282.42 391.63L283 392.27L283.64 392.85L284.33 393.38L285.06 393.86L285.83 394.26L286.63 394.6L287.48 394.88L288.35 395.08L289.25 395.2L290.17 395.24L302.5 395.24L303.42 395.2L304.32 395.08L305.2 394.88L306.04 394.6L306.85 394.26L307.62 393.86L308.35 393.38L309.03 392.85L309.67 392.27L310.25 391.63L310.78 390.95L311.25 390.22L311.66 389.45L312 388.64L312.28 387.8L312.47 386.92L312.6 386.02L312.64 385.1L312.64 382.09L312.6 381.17L312.47 380.27L312.28 379.39L312 378.55L311.66 377.74L311.25 376.97L310.78 376.24L310.25 375.56L309.67 374.92L309.03 374.33L308.35 373.81L307.62 373.33L306.85 372.93L306.04 372.58L305.2 372.31L304.32 372.11L303.42 371.99L302.5 371.95L290.17 371.95L289.25 371.99L288.35 372.11L287.48 372.31L286.63 372.58L285.83 372.93L285.06 373.33L284.33 373.81L283.64 374.33L283 374.92L282.42 375.56L281.89 376.24L281.42 376.97L281.01 377.74L280.67 378.55L280.4 379.39L280.2 380.27L280.08 381.17L280.03 382.09L280.03 383.59L272.81 383.59L272.81 382.09L272.77 381.17L272.64 380.27L272.45 379.39L272.17 378.55L271.83 377.74L271.42 376.97L270.95 376.24L270.42 375.56L269.84 374.92L269.2 374.33L268.52 373.81L267.79 373.33L267.02 372.93L266.21 372.58L265.37 372.31L264.49 372.11L263.59 371.99L262.67 371.95L250.34 371.95L249.42 371.99Z" id="a3EQrCsGQ"></path><path d="M316.47 433.7C322.35 433.7 327.11 438.46 327.11 444.33C327.11 462.48 327.11 506.29 327.11 524.44C327.11 530.31 322.35 535.07 316.47 535.07C298.33 535.07 254.52 535.07 236.37 535.07C230.5 535.07 225.73 530.31 225.73 524.44C225.73 506.29 225.73 462.48 225.73 444.33C225.73 438.46 230.5 433.7 236.37 433.7C254.52 433.7 298.33 433.7 316.47 433.7Z" id="b1MUFPbGj2"></path><path d="M585.41 439.49C585.41 458 570.38 473.03 551.87 473.03C533.36 473.03 518.33 458 518.33 439.49C518.33 420.98 533.36 405.95 551.87 405.95C570.38 405.95 585.41 420.98 585.41 439.49Z" id="f5DpjQ1bR"></path><path d="M578.37 467.99C582.26 467.99 585.41 471.14 585.41 475.03C585.41 487.04 585.41 516.03 585.41 528.04C585.41 531.92 582.26 535.07 578.37 535.07C566.36 535.07 537.38 535.07 525.37 535.07C521.48 535.07 518.33 531.92 518.33 528.04C518.33 516.03 518.33 487.04 518.33 475.03C518.33 471.14 521.48 467.99 525.37 467.99C537.38 467.99 566.36 467.99 578.37 467.99Z" id="b4Rx8f5Ct6"></path><path d="M483.96 281.35C485.3 281.78 485.72 283.46 484.75 284.46C484.33 284.9 485.17 284.03 484.75 284.46C483.46 285.8 481.52 286.29 479.76 285.72C453.58 277.34 377.94 253.1 351.77 244.71C350.43 244.29 350.01 242.61 350.98 241.6C351.4 241.16 350.56 242.04 350.98 241.6C352.27 240.26 354.21 239.78 355.97 240.34C382.15 248.73 457.79 272.96 483.96 281.35Z" id="e9IuRf8FLY"></path><path d="M484.75 209.98C485.51 208.8 487.24 208.83 487.96 210.03C488.27 210.55 487.65 209.51 487.96 210.03C488.92 211.62 488.88 213.62 487.88 215.18C461.18 256.53 382.73 378.03 356.04 419.38C355.28 420.56 353.55 420.53 352.83 419.33C352.52 418.81 353.14 419.85 352.83 419.33C351.87 417.74 351.9 415.74 352.91 414.18C379.61 372.83 458.05 251.33 484.75 209.98Z" id="bdgHjLM06"></path><path d="M502.15 451.59C502.99 452.71 502.36 454.32 500.99 454.58C500.39 454.69 501.58 454.47 500.99 454.58C499.16 454.92 497.3 454.19 496.19 452.7C466.75 413.26 380.26 297.34 350.83 257.89C349.99 256.77 350.62 255.16 352 254.91C352.59 254.79 351.4 255.02 352 254.91C353.82 254.56 355.68 255.29 356.79 256.78C386.23 296.23 472.72 412.14 502.15 451.59Z" id="c3bwLy7PMx"></path></defs><g><g><use xlink:href="#a5xNMlWPXf" opacity="1" fill="#800000" fill-opacity="1"></use></g><g><use xlink:href="#b19UZSsZ29" opacity="1" fill="#800000" fill-opacity="1"></use></g><g><use xlink:href="#bUtxfYxzx" opacity="1" fill="#800000" fill-opacity="1"></use></g><g><use xlink:href="#b1G0JMtehF" opacity="1" fill="#800000" fill-opacity="1"></use></g><g><use xlink:href="#a9m5DKn12" opacity="1" fill="#800000" fill-opacity="1"></use></g><g><use xlink:href="#c1FQl7IOjH" opacity="1" fill="#800000" fill-opacity="1"></use></g><g><use xlink:href="#b5yF2XnNa" opacity="1" fill="#800000" fill-opacity="1"></use></g><g><use xlink:href="#aoKP41Ab" opacity="1" fill="#800000" fill-opacity="1"></use></g><g><use xlink:href="#a3XYnRIgi" opacity="1" fill="#800000" fill-opacity="1"></use></g><g><use xlink:href="#b6kXHgMqd" opacity="1" fill="#800000" fill-opacity="1"></use></g><g><use xlink:href="#amZk9robs" opacity="1" fill="#fffefe" fill-opacity="1"></use></g><g><use xlink:href="#a3EQrCsGQ" opacity="1" fill="#800000" fill-opacity="1"></use></g><g><use xlink:href="#b1MUFPbGj2" opacity="1" fill="#800000" fill-opacity="1"></use></g><g><use xlink:href="#f5DpjQ1bR" opacity="1" fill="#800000" fill-opacity="1"></use></g><g><use xlink:href="#b4Rx8f5Ct6" opacity="1" fill="#800000" fill-opacity="1"></use></g><g><use xlink:href="#e9IuRf8FLY" opacity="1" fill="#800000" fill-opacity="1"></use></g><g><use xlink:href="#bdgHjLM06" opacity="1" fill="#800000" fill-opacity="1"></use></g><g><use xlink:href="#c3bwLy7PMx" opacity="1" fill="#800000" fill-opacity="1"></use></g></g></svg>