<?xml version="1.0" encoding="UTF-8" standalone="no"?>
<!DOCTYPE svg PUBLIC "-//W3C//DTD SVG 1.1//EN" "http://www.w3.org/Graphics/SVG/1.1/DTD/svg11.dtd">
<svg version="1.1" xmlns="http://www.w3.org/2000/svg" xmlns:xlink="http://www.w3.org/1999/xlink" preserveAspectRatio="xMidYMid meet" viewBox="246.181 235.98328147100437 149.638 146.83671852899562" width="145.64" height="142.84"><defs><path d="M324.95 237.23L327.97 237.54L330.96 237.97L333.3 238.4L333.38 239.75L333.57 241.61L333.83 243.44L334.16 245.25L334.57 247.03L335.04 248.79L335.58 250.52L336.18 252.22L336.85 253.89L337.58 255.53L338.37 257.13L339.22 258.69L340.13 260.22L341.09 261.71L342.12 263.16L343.19 264.57L344.32 265.93L345.49 267.25L346.72 268.52L347.99 269.75L349.31 270.93L350.68 272.05L352.08 273.13L353.53 274.15L355.02 275.11L356.55 276.02L358.12 276.87L359.72 277.66L361.35 278.4L363.02 279.06L364.72 279.67L366.45 280.21L368.21 280.68L369.99 281.08L371.8 281.41L373.64 281.67L375.49 281.86L377.37 281.98L379.27 282.02L381.16 281.98L383.04 281.86L384.9 281.67L386.73 281.41L387.24 281.32L387.9 282.8L388.99 285.52L389.97 288.29L390.85 291.11L391.62 293.97L392.27 296.88L392.82 299.82L392.82 299.84L391.32 300.37L389.65 301.04L388.02 301.77L386.42 302.56L384.85 303.41L383.32 304.32L381.83 305.29L380.39 306.31L378.98 307.38L377.61 308.51L376.29 309.69L375.02 310.91L373.79 312.18L372.62 313.5L371.49 314.87L370.42 316.28L369.4 317.73L368.43 319.22L367.52 320.74L366.67 322.31L365.88 323.91L365.15 325.55L364.48 327.21L363.88 328.91L363.34 330.64L362.87 332.4L362.46 334.19L362.13 336L361.87 337.83L361.68 339.69L361.57 341.56L361.53 343.46L361.57 345.36L361.68 347.23L361.87 349.09L362.13 350.92L362.46 352.73L362.87 354.52L363.34 356.28L363.88 358.01L364.48 359.7L365.15 361.37L365.88 363.01L366.67 364.61L367.52 366.18L368.43 367.7L368.63 368L367.6 368.92L365.37 370.75L363.08 372.5L360.72 374.17L358.29 375.74L355.8 377.22L353.25 378.61L350.8 379.82L350.25 378.98L349.23 377.53L348.16 376.12L347.03 374.76L345.86 373.44L344.63 372.17L343.36 370.94L342.04 369.76L340.67 368.64L339.27 367.56L337.82 366.54L336.33 365.58L334.8 364.67L333.23 363.82L331.63 363.02L330 362.29L328.33 361.63L326.63 361.02L324.9 360.48L323.14 360.01L321.36 359.61L319.55 359.28L317.71 359.02L315.86 358.83L313.98 358.71L312.08 358.67L310.19 358.71L308.31 358.83L306.45 359.02L304.62 359.28L302.81 359.61L301.02 360.01L299.27 360.48L297.54 361.02L295.84 361.63L294.17 362.29L292.53 363.02L290.93 363.82L289.37 364.67L287.84 365.58L286.35 366.54L284.9 367.56L283.49 368.64L282.13 369.76L280.81 370.94L279.53 372.17L278.31 373.44L277.37 374.49L276.88 374.17L274.52 372.5L272.22 370.75L270 368.92L267.85 367L265.78 365.01L263.78 362.93L261.86 360.78L260.87 359.58L261.46 358.85L262.54 357.45L263.56 356L264.52 354.51L265.43 352.98L266.28 351.41L267.07 349.81L267.8 348.18L268.47 346.51L269.07 344.81L269.61 343.08L270.08 341.32L270.49 339.54L270.82 337.73L271.08 335.89L271.27 334.04L271.38 332.16L271.42 330.26L271.38 328.37L271.27 326.49L271.08 324.63L270.82 322.8L270.49 320.99L270.08 319.21L269.61 317.45L269.07 315.72L268.47 314.02L267.8 312.35L267.07 310.72L266.28 309.11L265.43 307.55L264.52 306.02L263.56 304.53L262.54 303.08L261.46 301.67L260.34 300.31L259.16 298.99L257.93 297.72L256.66 296.49L255.34 295.31L253.97 294.19L252.57 293.11L251.12 292.09L249.63 291.13L248.1 290.22L247.18 289.72L247.63 288.29L248.61 285.52L249.7 282.8L250.89 280.14L252.18 277.53L253.56 274.98L253.65 274.83L254.98 275.19L256.77 275.59L258.58 275.93L260.41 276.19L262.27 276.38L264.15 276.49L266.04 276.53L267.94 276.49L269.82 276.38L271.67 276.19L273.51 275.93L275.32 275.59L277.1 275.19L278.86 274.72L280.59 274.18L282.29 273.58L283.96 272.91L285.59 272.18L287.19 271.39L288.76 270.54L290.29 269.63L291.78 268.66L293.23 267.64L294.63 266.57L296 265.44L297.32 264.27L298.59 263.04L299.82 261.77L300.99 260.45L302.12 259.08L303.19 257.67L304.22 256.22L305.18 254.73L306.09 253.21L306.94 251.64L307.73 250.04L308.46 248.4L309.13 246.74L309.73 245.04L310.27 243.31L310.74 241.55L311.15 239.76L311.48 237.95L311.57 237.34L312.65 237.23L315.71 237.05L318.8 236.98L321.89 237.05L324.95 237.23ZM315.51 272.11L313.9 272.27L312.31 272.5L310.73 272.79L309.18 273.14L307.66 273.55L306.15 274.02L304.68 274.54L303.23 275.12L301.81 275.76L300.42 276.44L299.06 277.18L297.73 277.97L296.43 278.81L295.17 279.7L293.95 280.63L292.77 281.61L291.62 282.63L290.51 283.7L289.45 284.8L288.43 285.95L287.45 287.14L286.51 288.36L285.63 289.62L284.79 290.91L284 292.24L283.26 293.6L282.57 294.99L281.94 296.41L281.36 297.86L280.83 299.34L280.36 300.84L279.96 302.37L279.61 303.92L279.32 305.49L279.09 307.09L278.92 308.7L278.83 310.33L278.79 311.98L278.83 313.62L278.92 315.26L279.09 316.87L279.32 318.46L279.61 320.03L279.96 321.58L280.36 323.11L280.83 324.61L281.36 326.09L281.94 327.54L282.57 328.96L283.26 330.35L284 331.71L284.79 333.04L285.63 334.33L286.51 335.59L287.45 336.82L288.43 338L289.45 339.15L290.51 340.26L291.62 341.32L292.77 342.34L293.95 343.32L295.17 344.25L296.43 345.14L297.73 345.98L299.06 346.77L300.42 347.51L301.81 348.2L303.23 348.83L304.68 349.41L306.15 349.94L307.66 350.4L309.18 350.81L310.73 351.16L312.31 351.45L313.9 351.68L315.51 351.84L317.14 351.94L318.79 351.98L320.44 351.94L322.07 351.84L323.68 351.68L325.28 351.45L326.85 351.16L328.4 350.81L329.93 350.4L331.43 349.94L332.91 349.41L334.36 348.83L335.78 348.2L337.17 347.51L338.53 346.77L339.86 345.98L341.15 345.14L342.41 344.25L343.63 343.32L344.82 342.34L345.96 341.32L347.07 340.26L348.14 339.15L349.16 338L350.14 336.82L351.07 335.59L351.96 334.33L352.8 333.04L353.59 331.71L354.32 330.35L355.01 328.96L355.65 327.54L356.23 326.09L356.75 324.61L357.22 323.11L357.63 321.58L357.98 320.03L358.27 318.46L358.5 316.87L358.66 315.26L358.76 313.62L358.79 311.98L358.76 310.33L358.66 308.7L358.5 307.09L358.27 305.49L357.98 303.92L357.63 302.37L357.22 300.84L356.75 299.34L356.23 297.86L355.65 296.41L355.01 294.99L354.32 293.6L353.59 292.24L352.8 290.91L351.96 289.62L351.07 288.36L350.14 287.14L349.16 285.95L348.14 284.8L347.07 283.7L345.96 282.63L344.82 281.61L343.63 280.63L342.41 279.7L341.15 278.81L339.86 277.97L338.53 277.18L337.17 276.44L335.78 275.76L334.36 275.12L332.91 274.54L331.43 274.02L329.93 273.55L328.4 273.14L326.85 272.79L325.28 272.5L323.68 272.27L322.07 272.11L320.44 272.01L318.79 271.98L317.14 272.01L315.51 272.11Z" id="e1T6ttSMdN"></path></defs><g><g><use xlink:href="#e1T6ttSMdN" opacity="1" fill="#ffeaa7" fill-opacity="1"></use></g></g></svg>