<?xml version="1.0" encoding="UTF-8" standalone="no"?>
<!DOCTYPE svg PUBLIC "-//W3C//DTD SVG 1.1//EN" "http://www.w3.org/Graphics/SVG/1.1/DTD/svg11.dtd">
<svg version="1.1" xmlns="http://www.w3.org/2000/svg" xmlns:xlink="http://www.w3.org/1999/xlink" preserveAspectRatio="xMidYMid meet" viewBox="359.0008108108067 408.9998227082345 144.03785905335235 167.91846126716058" width="140.04" height="163.92"><defs><path d="M490.27 410C495.66 410 500.04 414.38 500.04 419.77C500.04 448.6 500.04 525.32 500.04 554.15C500.04 559.54 495.66 563.92 490.27 563.92C468.21 563.92 411.83 563.92 389.77 563.92C384.38 563.92 380 559.54 380 554.15C380 525.32 380 448.6 380 419.77C380 414.38 384.38 410 389.77 410C411.83 410 468.21 410 490.27 410Z" id="h19lBCaTkS"></path><path d="M480.26 415C485.66 415 490.03 419.37 490.03 424.77C490.03 453.6 490.03 530.32 490.03 559.15C490.03 564.54 485.66 568.92 480.26 568.92C458.21 568.92 401.82 568.92 379.77 568.92C374.37 568.92 370 564.54 370 559.15C370 530.32 370 453.6 370 424.77C370 419.37 374.37 415 379.77 415C401.82 415 458.21 415 480.26 415Z" id="e1l3KCuozC"></path><path d="M461.68 420.07L462.49 420.15L463.28 420.26L464.07 420.41L464.84 420.58L465.61 420.79L466.36 421.02L467.1 421.28L467.82 421.57L468.53 421.89L469.23 422.23L469.91 422.6L470.57 423L471.22 423.42L471.85 423.86L472.46 424.32L473.05 424.81L473.63 425.32L474.18 425.86L474.71 426.41L475.22 426.98L475.71 427.58L476.18 428.19L476.62 428.82L477.04 429.46L477.44 430.13L477.81 430.81L478.15 431.5L478.47 432.21L478.76 432.94L479.02 433.68L479.25 434.43L479.46 435.19L479.63 435.97L479.78 436.76L479.89 437.55L479.97 438.36L480.02 439.17L480.04 440L480.04 553.92L480.02 554.74L479.97 555.56L479.89 556.37L479.78 557.16L479.63 557.95L479.46 558.72L479.25 559.49L479.02 560.24L478.76 560.98L478.47 561.7L478.15 562.41L477.81 563.11L477.44 563.79L477.04 564.45L476.62 565.1L476.18 565.73L475.71 566.34L475.22 566.93L474.71 567.51L474.18 568.06L473.63 568.59L473.05 569.1L472.46 569.59L471.85 570.06L471.22 570.5L470.57 570.92L469.91 571.32L469.23 571.69L468.53 572.03L467.82 572.35L467.1 572.64L466.36 572.9L465.61 573.13L464.84 573.34L464.07 573.51L463.28 573.66L462.49 573.77L461.68 573.85L460.86 573.9L460.04 573.92L380 573.92L379.18 573.9L378.36 573.85L377.55 573.77L376.76 573.66L375.97 573.51L375.19 573.34L374.43 573.13L373.68 572.9L372.94 572.64L372.22 572.35L371.51 572.03L370.81 571.69L370.13 571.32L369.47 570.92L368.82 570.5L368.19 570.06L367.58 569.59L366.99 569.1L366.41 568.59L365.86 568.06L365.33 567.51L364.82 566.93L364.33 566.34L363.86 565.73L363.42 565.1L363 564.45L362.6 563.79L362.23 563.11L361.89 562.41L361.57 561.7L361.28 560.98L361.02 560.24L360.79 559.49L360.58 558.72L360.41 557.95L360.26 557.16L360.15 556.37L360.07 555.56L360.02 554.74L360 553.92L360 440L360.02 439.17L360.07 438.36L360.15 437.55L360.26 436.76L360.41 435.97L360.58 435.19L360.79 434.43L361.02 433.68L361.28 432.94L361.57 432.21L361.89 431.5L362.23 430.81L362.6 430.13L363 429.46L363.42 428.82L363.86 428.19L364.33 427.58L364.82 426.98L365.33 426.41L365.86 425.86L366.41 425.32L366.99 424.81L367.58 424.32L368.19 423.86L368.82 423.42L369.47 423L370.13 422.6L370.81 422.23L371.51 421.89L372.22 421.57L372.94 421.28L373.68 421.02L374.43 420.79L375.19 420.58L375.97 420.41L376.76 420.26L377.55 420.15L378.36 420.07L379.18 420.02L380 420L460.04 420L460.86 420.02L461.68 420.07ZM382.31 550.39L381.94 550.43L381.58 550.51L381.23 550.61L380.9 550.73L380.57 550.88L380.26 551.06L379.97 551.26L379.7 551.48L379.44 551.72L379.2 551.97L378.98 552.25L378.78 552.54L378.61 552.85L378.45 553.17L378.33 553.51L378.23 553.86L378.15 554.22L378.11 554.58L378.09 554.96L378.09 554.97L378.11 555.35L378.15 555.72L378.23 556.08L378.33 556.42L378.45 556.76L378.61 557.08L378.78 557.39L378.98 557.68L379.2 557.96L379.44 558.22L379.7 558.46L379.97 558.68L380.26 558.87L380.57 559.05L380.9 559.2L381.23 559.33L381.58 559.43L381.94 559.5L382.31 559.55L382.68 559.56L418.16 559.56L418.53 559.55L418.9 559.5L419.26 559.43L419.61 559.33L419.94 559.2L420.27 559.05L420.57 558.87L420.87 558.68L421.14 558.46L421.4 558.22L421.64 557.96L421.86 557.68L422.06 557.39L422.23 557.08L422.38 556.76L422.51 556.42L422.61 556.08L422.68 555.72L422.73 555.35L422.74 554.97L422.74 554.96L422.73 554.58L422.68 554.22L422.61 553.86L422.51 553.51L422.38 553.17L422.23 552.85L422.06 552.54L421.86 552.25L421.64 551.97L421.4 551.72L421.14 551.48L420.87 551.26L420.57 551.06L420.27 550.88L419.94 550.73L419.61 550.61L419.26 550.51L418.9 550.43L418.53 550.39L418.16 550.37L382.68 550.37L382.31 550.39ZM382.31 530.39L381.94 530.43L381.58 530.51L381.23 530.61L380.9 530.73L380.57 530.88L380.26 531.06L379.97 531.26L379.7 531.48L379.44 531.72L379.2 531.97L378.98 532.25L378.78 532.54L378.61 532.85L378.45 533.17L378.33 533.51L378.23 533.86L378.15 534.22L378.11 534.58L378.09 534.96L378.09 534.97L378.11 535.35L378.15 535.72L378.23 536.08L378.33 536.42L378.45 536.76L378.61 537.08L378.78 537.39L378.98 537.68L379.2 537.96L379.44 538.22L379.7 538.46L379.97 538.68L380.26 538.87L380.57 539.05L380.9 539.2L381.23 539.33L381.58 539.43L381.94 539.5L382.31 539.55L382.68 539.56L418.16 539.56L418.53 539.55L418.9 539.5L419.26 539.43L419.61 539.33L419.94 539.2L420.27 539.05L420.57 538.87L420.87 538.68L421.14 538.46L421.4 538.22L421.64 537.96L421.86 537.68L422.06 537.39L422.23 537.08L422.38 536.76L422.51 536.42L422.61 536.08L422.68 535.72L422.73 535.35L422.74 534.97L422.74 534.96L422.73 534.58L422.68 534.22L422.61 533.86L422.51 533.51L422.38 533.17L422.23 532.85L422.06 532.54L421.86 532.25L421.64 531.97L421.4 531.72L421.14 531.48L420.87 531.26L420.57 531.06L420.27 530.88L419.94 530.73L419.61 530.61L419.26 530.51L418.9 530.43L418.53 530.39L418.16 530.37L382.68 530.37L382.31 530.39ZM382.47 510.39L382.26 510.4L382.05 510.43L381.84 510.46L381.64 510.5L381.43 510.56L381.24 510.62L381.04 510.69L380.85 510.76L380.67 510.85L380.49 510.94L380.31 511.04L380.14 511.15L379.98 511.27L379.81 511.39L379.66 511.52L379.51 511.66L379.37 511.8L379.23 511.95L379.1 512.1L378.98 512.26L378.86 512.43L378.76 512.6L378.65 512.78L378.56 512.96L378.48 513.14L378.4 513.33L378.33 513.52L378.27 513.72L378.22 513.92L378.17 514.13L378.14 514.34L378.11 514.55L378.1 514.76L378.09 514.98L378.1 515.19L378.11 515.41L378.14 515.62L378.17 515.83L378.22 516.03L378.27 516.23L378.33 516.43L378.4 516.62L378.48 516.81L378.56 517L378.65 517.18L378.76 517.35L378.86 517.52L378.98 517.69L379.1 517.85L379.23 518.01L379.37 518.15L379.51 518.3L379.66 518.43L379.81 518.56L379.98 518.69L380.14 518.8L380.31 518.91L380.49 519.01L380.67 519.1L380.85 519.19L381.04 519.27L381.24 519.34L381.43 519.4L381.64 519.45L381.84 519.49L382.05 519.53L382.26 519.55L382.47 519.57L382.69 519.57L457.35 519.57L457.57 519.57L457.78 519.55L457.99 519.53L458.2 519.49L458.4 519.45L458.61 519.4L458.8 519.34L459 519.27L459.19 519.19L459.37 519.1L459.55 519.01L459.73 518.91L459.9 518.8L460.06 518.69L460.22 518.56L460.38 518.43L460.53 518.3L460.67 518.15L460.81 518.01L460.94 517.85L461.06 517.69L461.17 517.52L461.28 517.35L461.38 517.18L461.48 517L461.56 516.81L461.64 516.62L461.71 516.43L461.77 516.23L461.82 516.03L461.87 515.83L461.9 515.62L461.93 515.41L461.94 515.19L461.95 514.98L461.94 514.76L461.93 514.55L461.9 514.34L461.87 514.13L461.82 513.92L461.77 513.72L461.71 513.52L461.64 513.33L461.56 513.14L461.48 512.96L461.38 512.78L461.28 512.6L461.17 512.43L461.06 512.26L460.94 512.1L460.81 511.95L460.67 511.8L460.53 511.66L460.38 511.52L460.22 511.39L460.06 511.27L459.9 511.15L459.73 511.04L459.55 510.94L459.37 510.85L459.19 510.76L459 510.69L458.8 510.62L458.61 510.56L458.4 510.5L458.2 510.46L457.99 510.43L457.78 510.4L457.57 510.39L457.35 510.38L382.69 510.38L382.47 510.39ZM381.56 450.38L381.38 450.39L381.2 450.42L381.02 450.45L380.84 450.49L380.66 450.54L380.49 450.6L380.33 450.66L380.17 450.74L380.01 450.82L379.86 450.9L379.71 451L379.56 451.1L379.43 451.21L379.29 451.32L379.17 451.45L379.04 451.57L378.93 451.71L378.82 451.84L378.72 451.99L378.62 452.14L378.54 452.29L378.45 452.45L378.38 452.61L378.32 452.77L378.26 452.94L378.21 453.12L378.17 453.3L378.14 453.48L378.11 453.66L378.1 453.84L378.09 454.03L378.09 496.04L378.1 496.23L378.11 496.41L378.14 496.6L378.17 496.78L378.21 496.95L378.26 497.13L378.32 497.3L378.38 497.46L378.45 497.62L378.54 497.78L378.62 497.94L378.72 498.08L378.82 498.23L378.93 498.37L379.04 498.5L379.17 498.63L379.29 498.75L379.43 498.86L379.56 498.97L379.71 499.07L379.86 499.17L380.01 499.25L380.17 499.34L380.33 499.41L380.49 499.47L380.66 499.53L380.84 499.58L381.02 499.62L381.2 499.65L381.38 499.68L381.56 499.69L381.75 499.7L410.04 499.7L410.23 499.69L410.42 499.68L410.6 499.65L410.78 499.62L410.96 499.58L411.13 499.53L411.3 499.47L411.47 499.41L411.63 499.34L411.79 499.25L411.94 499.17L412.09 499.07L412.23 498.97L412.37 498.86L412.5 498.75L412.63 498.63L412.75 498.5L412.87 498.37L412.98 498.23L413.08 498.08L413.17 497.94L413.26 497.78L413.34 497.62L413.41 497.46L413.48 497.3L413.54 497.13L413.59 496.95L413.63 496.78L413.66 496.6L413.68 496.41L413.7 496.23L413.7 496.04L413.7 454.03L413.7 453.84L413.68 453.66L413.66 453.48L413.63 453.3L413.59 453.12L413.54 452.94L413.48 452.77L413.41 452.61L413.34 452.45L413.26 452.29L413.17 452.14L413.08 451.99L412.98 451.84L412.87 451.71L412.75 451.57L412.63 451.45L412.5 451.32L412.37 451.21L412.23 451.1L412.09 451L411.94 450.9L411.79 450.82L411.63 450.74L411.47 450.66L411.3 450.6L411.13 450.54L410.96 450.49L410.78 450.45L410.6 450.42L410.42 450.39L410.23 450.38L410.04 450.37L381.75 450.37L381.56 450.38ZM429.62 490.4L429.26 490.45L428.91 490.54L428.57 490.66L428.25 490.82L427.95 491L427.67 491.21L427.41 491.45L427.17 491.71L426.96 491.99L426.78 492.29L426.62 492.61L426.5 492.95L426.41 493.3L426.36 493.66L426.34 494.03L426.34 495.91L426.36 496.28L426.41 496.64L426.5 497L426.62 497.33L426.78 497.65L426.96 497.95L427.17 498.23L427.41 498.49L427.67 498.73L427.95 498.94L428.25 499.12L428.57 499.28L428.91 499.4L429.26 499.49L429.62 499.55L430 499.57L458.29 499.57L458.66 499.55L459.02 499.49L459.37 499.4L459.71 499.28L460.03 499.12L460.33 498.94L460.61 498.73L460.87 498.49L461.11 498.23L461.32 497.95L461.5 497.65L461.66 497.33L461.78 497L461.87 496.64L461.93 496.28L461.95 495.91L461.95 494.03L461.93 493.66L461.87 493.3L461.78 492.95L461.66 492.61L461.5 492.29L461.32 491.99L461.11 491.71L460.87 491.45L460.61 491.21L460.33 491L460.03 490.82L459.71 490.66L459.37 490.54L459.02 490.45L458.66 490.4L458.29 490.38L430 490.38L429.62 490.4ZM429.62 470.4L429.26 470.46L428.91 470.55L428.57 470.67L428.25 470.82L427.95 471.01L427.67 471.22L427.41 471.45L427.17 471.71L426.96 471.99L426.78 472.3L426.62 472.62L426.5 472.95L426.41 473.3L426.36 473.67L426.34 474.04L426.34 475.91L426.36 476.29L426.41 476.65L426.5 477L426.62 477.34L426.78 477.66L426.96 477.96L427.17 478.24L427.41 478.5L427.67 478.74L427.95 478.95L428.25 479.13L428.57 479.28L428.91 479.41L429.26 479.5L429.62 479.55L430 479.57L458.29 479.57L458.66 479.55L459.02 479.5L459.37 479.41L459.71 479.28L460.03 479.13L460.33 478.95L460.61 478.74L460.87 478.5L461.11 478.24L461.32 477.96L461.5 477.66L461.66 477.34L461.78 477L461.87 476.65L461.93 476.29L461.95 475.91L461.95 474.04L461.93 473.67L461.87 473.3L461.78 472.95L461.66 472.62L461.5 472.3L461.32 471.99L461.11 471.71L460.87 471.45L460.61 471.22L460.33 471.01L460.03 470.82L459.71 470.67L459.37 470.55L459.02 470.46L458.66 470.4L458.29 470.38L430 470.38L429.62 470.4ZM429.62 450.39L429.26 450.45L428.91 450.54L428.57 450.66L428.25 450.82L427.95 451L427.67 451.21L427.41 451.45L427.17 451.71L426.96 451.99L426.78 452.29L426.62 452.61L426.5 452.94L426.41 453.3L426.36 453.66L426.34 454.03L426.34 455.91L426.36 456.28L426.41 456.64L426.5 456.99L426.62 457.33L426.78 457.65L426.96 457.95L427.17 458.23L427.41 458.49L427.67 458.73L427.95 458.94L428.25 459.12L428.57 459.28L428.91 459.4L429.26 459.49L429.62 459.54L430 459.56L458.29 459.56L458.66 459.54L459.02 459.49L459.37 459.4L459.71 459.28L460.03 459.12L460.33 458.94L460.61 458.73L460.87 458.49L461.11 458.23L461.32 457.95L461.5 457.65L461.66 457.33L461.78 456.99L461.87 456.64L461.93 456.28L461.95 455.91L461.95 454.03L461.93 453.66L461.87 453.3L461.78 452.94L461.66 452.61L461.5 452.29L461.32 451.99L461.11 451.71L460.87 451.45L460.61 451.21L460.33 451L460.03 450.82L459.71 450.66L459.37 450.54L459.02 450.45L458.66 450.39L458.29 450.37L430 450.37L429.62 450.39ZM382.48 430.38L382.27 430.39L382.07 430.42L381.86 430.45L381.66 430.49L381.47 430.54L381.27 430.6L381.09 430.66L380.9 430.74L380.72 430.82L380.54 430.91L380.37 431L380.2 431.1L380.04 431.22L379.88 431.33L379.73 431.46L379.58 431.58L379.44 431.72L379.3 431.86L379.17 432.01L379.05 432.16L378.93 432.32L378.82 432.48L378.72 432.65L378.63 432.82L378.54 433L378.46 433.18L378.38 433.37L378.32 433.55L378.26 433.75L378.21 433.94L378.17 434.14L378.14 434.35L378.11 434.55L378.1 434.76L378.09 434.97L378.1 435.18L378.11 435.39L378.14 435.59L378.17 435.79L378.21 435.99L378.26 436.19L378.32 436.38L378.38 436.57L378.46 436.76L378.54 436.94L378.63 437.12L378.72 437.29L378.82 437.46L378.93 437.62L379.05 437.78L379.17 437.93L379.3 438.08L379.44 438.22L379.58 438.35L379.73 438.48L379.88 438.61L380.04 438.72L380.2 438.83L380.37 438.94L380.54 439.03L380.72 439.12L380.9 439.2L381.09 439.28L381.27 439.34L381.47 439.4L381.66 439.45L381.86 439.49L382.07 439.52L382.27 439.54L382.48 439.56L382.69 439.56L457.35 439.56L457.56 439.56L457.77 439.54L457.97 439.52L458.18 439.49L458.38 439.45L458.57 439.4L458.76 439.34L458.95 439.28L459.14 439.2L459.32 439.12L459.5 439.03L459.67 438.94L459.84 438.83L460 438.72L460.16 438.61L460.31 438.48L460.46 438.35L460.6 438.22L460.74 438.08L460.86 437.93L460.99 437.78L461.1 437.62L461.21 437.46L461.32 437.29L461.41 437.12L461.5 436.94L461.58 436.76L461.66 436.57L461.72 436.38L461.78 436.19L461.83 435.99L461.87 435.79L461.9 435.59L461.93 435.39L461.94 435.18L461.95 434.97L461.94 434.76L461.93 434.55L461.9 434.35L461.87 434.14L461.83 433.94L461.78 433.75L461.72 433.55L461.66 433.37L461.58 433.18L461.5 433L461.41 432.82L461.32 432.65L461.21 432.48L461.1 432.32L460.99 432.16L460.86 432.01L460.74 431.86L460.6 431.72L460.46 431.58L460.31 431.46L460.16 431.33L460 431.22L459.84 431.1L459.67 431L459.5 430.91L459.32 430.82L459.14 430.74L458.95 430.66L458.76 430.6L458.57 430.54L458.38 430.49L458.18 430.45L457.97 430.42L457.77 430.39L457.56 430.38L457.35 430.37L382.69 430.37L382.48 430.38Z" id="a2Mz6WyQQ"></path></defs><g><g><use xlink:href="#h19lBCaTkS" opacity="1" fill="#000000" fill-opacity="1"></use></g><g><use xlink:href="#e1l3KCuozC" opacity="1" fill="#4d1313" fill-opacity="1"></use></g><g><use xlink:href="#a2Mz6WyQQ" opacity="1" fill="#800000" fill-opacity="1"></use></g></g></svg>