<svg xmlns="http://www.w3.org/2000/svg" viewBox="0 0 2866.09 1646.57"><defs><style>.cls-1{fill:#fff;}</style></defs><title>winter_is_missingAsset 1</title><g id="Layer_2" data-name="Layer 2"><g id="Layer_1-2" data-name="Layer 1"><path class="cls-1" d="M2861.92,1356.57c5.12-3.66,4.26-8.68,3.82-13.54q-1.38-15.36-3.31-30.66c-2.93-23.41-6.07-46.79-9-70.19-1.24-9.88-2.76-19.79-3.11-29.72-.72-20.09-5.57-39.37-9.79-58.86-3-13.91-4.18-28.21-6.39-42.3-2-12.47-4.16-24.9-6.39-37.32s-4.33-24.85-7.06-37.15c-2.87-13-6.73-25.72-9.6-38.69-5.17-23.34-9.87-46.79-14.91-70.16-1.74-8-3.74-15.84-7.68-23.43-4.18-8-6.46-17.35-8.18-26.36-3.8-19.92-6.44-40.06-10.08-60-5.2-28.46-10.76-56.86-16.47-85.23-1-5-1.82-10.63-7.29-13.9l-3.19,3.69c-6.37-9.42-6.58-21.27-13.29-30.12h.07l2.48-5.4,13,24.29c-14.12-47.24-41.09-87.27-71-125.83l1.49,10.83c-2.55-.23-5,.23-6.59-.7-8.71-5-8.64-5.09-15.75,1.4-.73.67-1.53,1.25-2.11,1.72l-11-8.93-2.93,12.56c-9.87-4.08,1.76-11.88-4.6-16.56l-9.32,3,1.95-13c-2.66-1.87-6.6-3.21-7.37-5.57s1.41-6,2.24-8.81c-7.69-2.61-15.41-5.51-23.3-7.78-4-1.14-8.28-1.1-12.43-1.67a40.59,40.59,0,0,1-5.7-1.08q-23.93-6.88-47.82-13.89c-1.52-.45-3.34-1-4.28-2.14-5.28-6.28-12.55-6.83-19.89-7.4a51.1,51.1,0,0,1-8.9-1c-6.72-1.75-11.37-6.18-12.11-13.1-1.19-11.21-1.65-22.51-2.26-33.78a22.14,22.14,0,0,1,4.13-14c7.33-10.89,10.95-23.19,13.31-36.1.88-4.82,4.28-9.67,7.72-13.41,4-4.4,5.48-8.68,4.41-14.45-2.41-13-1.64-25.51,4.15-37.93a91.83,91.83,0,0,0,8.69-44.58,131.35,131.35,0,0,1,.47-18.94c1-11.53-2.59-22.25-8.62-31.19-11.14-16.52-23.69-32.13-36.27-47.63a244.93,244.93,0,0,0-24.4-26.14c-15.55-14.27-33.57-23-55.17-25.35-22.48-2.41-43.67,1-64.62,8.46a74.27,74.27,0,0,1-13.48,3.65c-13.69,2.13-24.36,8.76-31.46,20.64a17.5,17.5,0,0,1-9.58,8.07c-7.51,2.73-12.61,8-16.21,15.34a74,74,0,0,1-11.27,16c-7.26,8.23-12,17.42-13.53,28.31-1.59,11.17-3.18,22.35-5.18,33.45-1.11,6.18-3.06,12.21-4.61,18.31-.65,2.55-1.86,5.14-1.75,7.67.73,16.19,3.64,32.15,16.07,43.47,5.24,4.77,10.67,9.63,16.25,14.12a22.73,22.73,0,0,1,7.67,11.29c2.07,6.42,5,12.14,10.4,16.68a20.08,20.08,0,0,1,5.6,9.21c3.09,10.09,8.82,19.47,8.4,30.55,0,1.17.67,3.17,1.47,3.44,6.1,2,4.25,6.21,3.63,10.53-.54,3.77-.11,7.69-.11,11.09l9.58,4.72c1.67,14.7-4.14,25.39-16.39,32.8-7.38,4.47-14.81,8.87-22.23,13.28a15.53,15.53,0,0,1-1.79.89c-7.82,3.38-17.14,1-24,9.69-4.93,6.28-14.36,9.2-22.05,13.09-13.92,7.05-27.55,15-43.78,15.93-2.81.16-5.67,1.85-8.24,3.3-4.91,2.77-9.64,5.88-15.24,9.34l6.45,2.69-2.89,9.92c-8.26,1-8.26,1-18.14-3.89,2.57-2.71,4.11-5.2,3.3-9.69-2.95-16.36-5.06-32.92-6.6-49.48-1.83-19.71-10.57-34.67-27.56-44.93-5.38-3.25-10.23-7.37-15.62-10.6-12.76-7.65-27.32-10.5-41.43-14a327.91,327.91,0,0,1-61.86-22.16,65.64,65.64,0,0,0-14.13-4.33,55.49,55.49,0,0,1-23.73-11.88c-3.48-2.89-4.1-6.87-3.52-10.92q3.26-22.65,6.93-45.24c.79-4.9,2.29-9.68,3.12-14.57,1-6.05,4.95-10.12,9.22-13.84,12.66-11,20.81-24.95,26.25-40.56,1.73-5,2.54-10.26,4-16.31,7-2.06,14.19-5.33,18.21-12.86,1.07-2,2.65-4.32,2.45-6.34-1.48-14.79,5.35-27.84,8.33-41.68.63-2.93,1.5-5.82,2-8.77,1.18-7.2.83-13.86-5.7-19-3-2.36-5.92-5.49-2.05-10.16a14.24,14.24,0,0,1-.49-3.55c-.08-11.15-1.8-22.1-2.46-33.2-.65-10.93-.2-21.9-.65-32.85-.4-9.72-.29-19.46-1-29.17q-.13-1.65-.28-3.29c0-.23-.22-2.09-.23-2.31-.28-2-.64-4-1.05-5.93-.5-2.36-1.11-4.69-1.83-7-.35-1.11-.72-2.22-1.14-3.31-.09-.19-.48-1.09-.58-1.32a16.91,16.91,0,0,1-1.47-9.79c-2.55-2-4.42-5.39-8.3-6.49-4.85-1.38-7.92-9-11.86-13.94-3.23-.29-7.24.34-10.08-1.2s-4.52-5.25-7.42-8.9c-4.65-1-11.08.05-15.28-6.73-1.65-2.66-7.83-2.93-12.05-3.46-4.93-.61-10,0-13.72-4.45-.9-1.06-3.09-1.57-4.62-1.46-10.09.72-18.77-4.91-28.35-6.13-5.8-.74-11.78-.32-17.66-.06-4,.18-7.88,1.42-11.82,1.44-7.1,0-13.56-.79-20.52,3.9-4.81,3.23-12.63,1.85-18.39,6-8.2,5.93-16.85,11.26-25.45,16.63a38.15,38.15,0,0,1-8.21,3.42c-6,2-12,3.77-18.15,5.7l.35,7.54C1767.57,51,1756,57.9,1752,71.84c-.32,2.84-.82,5.64-1.41,8.42,0,.43-.06.86-.07,1.3l-.17-.21c-1.34,6-3.07,12-4.44,18.07-2.59,11.57-2,24.69-1.42,36.59.49,9.74,2,19.38,3.06,29.07.16.9.28,1.81.44,2.7.31,1.72.67,3.43,1.14,5.11,0,.1.07.21.1.31a14.38,14.38,0,0,1,7,11.1c.3-.17.6-.35.87-.55,4.52,9,3.78,13.1-3.41,16.24-6.32,2.76-9,7.73-9.78,14-1.16,8.84,1,17.18,4.75,25.13,3.57,7.51,7.66,14.8,10.79,22.48,5.27,13,14.61,21.19,27.75,25.22,5.24,1.61,8.27,4.63,10.15,9.87,11,30.66,9.07,61.76,2.34,92.64-3.23,14.79-12.69,27-22.83,38.22a15.64,15.64,0,0,1-3.76,3.26c-9.53,5.33-19.16,10.49-28.7,15.81a109.47,109.47,0,0,0-9.34,5.78c-31,21.6-64.87,37.83-99.21,53.17a44.48,44.48,0,0,1-6.68,1.93c-13.44,3.6-23.69,11.15-30.83,23.35-2.39,4.08-6.78,7-11.55,11.71-2.41-7.7-4.95-13.74-6.17-20-5.55-28.63-7-57.38-2.73-86.41,1.3-8.77-.24-18,.92-26.76,1.69-12.92-1.69-24.52-5.63-36.58-5.57-17-8.94-34.78-14.19-51.93-8.26-27-20.81-51.83-38.65-73.89-2.26-2.79-3.67-6.31-5.26-9.59-1.27-2.63-2.21-5.41-3.47-8.55L1516,228c.08-.62.41-1.36.2-1.85-3.06-7-8.13-11.37-16.08-11.21-9.22.19-18.43.7-26.55,1-4.07-2.13-7.58-4-11.11-5.81-5.58-2.88-9.35-.61-12.63,4.08-1.18,1.69-3.82,4.18-4.95,3.8-10.73-3.63-19.51,2.5-28.66,5.65s-17.65,7.77-26.42,11.79c-14.82,6.79-24.51,20.29-37.82,29.07a4.43,4.43,0,0,0-1.91,2.25c-3.95,17.19-18.07,29.34-22.64,46.29-4.93,18.29-11.21,36.25-15.51,54.68-3.05,13.07-5.27,26.68-5.21,40,.08,16.2,2.67,32.42,4.78,48.56.61,4.69,1.24,9-.14,13.66-3.93,13.42-1.49,27.15-1.16,40.74s1.89,27.25,1.67,40.85a73.61,73.61,0,0,1-4.39,24.39c-3.23,8.56-2.81,16.74-1.94,25.3.4,4,.11,8,.65,12,1.15,8.37.89,17,6.55,24.41,3.87,5.09,4.44,11.53,2.25,19.14-2-2.42-3.81-3.88-4.78-5.75-8.75-16.88-22.35-29.69-35.75-42.65a21.91,21.91,0,0,0-5.81-3.67c-9-4.33-9-4.28-7-14.47a74.62,74.62,0,0,0,1.51-8.85c.11-1.42-.78-2.91-1.58-5.59-5.18,5.69-9.5,11.42-17.48,7.11l-4.62,8.93c-6,.64-10.61-2-14.48-6.55,1.54-10.25,11.6-8.37,18.16-12.51l-10.1-7.6c-1.32.82-3.18,1.34-3.35,2.19-2.3,11.68-12.63,15.19-21.21,19.33a39.5,39.5,0,0,0-16.33,13.88c-2.28,3.36-4.56,7-9.43,5.85-5.27-1.26-10.27-3.44-12.89-8.58-1.9-3.73.61-6.43,3.36-8.43,4.29-3.13,8.93-5.79,13.24-8.9,6.16-4.43,11.9-9.32,16.58-16.86-7.2-.35-12.14,1.21-15.41,6.64a34.16,34.16,0,0,1-3.14,5.09c-3.86,4.39-9.55,4.55-14.87.63s-6.4-3.8-10.69,1.09c-6.41,7.29-12.74,14.67-8.41,26.26-7.28,1.13-11.45-2.3-15.08-6.7-4.14-5-2.28-9.92,1.39-14.84-6.28-4.65-14.56-8.16-9.2-18,2.55-4.7,7.48-8.76,19.07-3.52l-6.6,2.17,3.35,13.85c6.21,1,11.08-2.63,14.57-6.62,10.72-12.27,25.55-19.06,37.58-29.49,2.83-2.45,5.42-5.17,8.12-7.77l-1.46-1.69c-1.69,1.2-3.38,2.4-5.08,3.59a57.53,57.53,0,0,1-6.56,4.45c-3,1.53-7,2.94-9-.51-1.37-2.4-.81-6.26-.23-9.3.4-2.09,2.32-3.89,3.47-5.69-6.42-8.88-14.82-11-23.92-6.86a39.33,39.33,0,0,1-11.37,3.38c-10.39,1.27-12.46-1.77-8.18-11.73-12.08,2-9.75,12.44-12.14,21.17-13.68-5.92-28.74-5-41.77-12.49-8-4.65-13.32-10.32-15.11-19.67-2.18-11.37-2.57-21.77,3.31-32.76,4.08-7.62,4.61-17.2,6.38-26,1.3-6.43,2-13,2.93-18.81a11.33,11.33,0,0,1,1.76-1c5.58-1.24,11.88,1.72,16.75-3.91,6.21-7.18,12.07-14.6,12.4-24.37.46-13.85,4.12-27.55.79-41.68-1.3-5.51-2.41-10.41-7.09-13.52-4.2-2.79-4.06-6-3-10.31,3.47-14.14,6.3-28.43,9.74-42.58,1.8-7.41,4.13-14.72,6.64-21.94,3.12-9,4.52-17.89,2.81-27.42-1.15-6.44-.87-13.12-1.51-19.66-.94-9.64-5.41-17.7-11.78-24.81-2-2.23-3.93-4.48-3.76-7.36a40.84,40.84,0,0,1-4-16.34c0-.9,0-1.79,0-2.69a60,60,0,0,1-6.22-12.43c-.71-.67-1.42-1.35-2.12-2-2-2-4.16-3.88-6.26-5.8l-.24-.16c-.29-.19-.6-.35-.89-.53q-1.58-.42-3.2-.74a156.78,156.78,0,0,1-17.27-2.54,26.41,26.41,0,0,1-7.21-2.78l-.34.32-.85-1A30,30,0,0,1,1048,117.91c-.35,2.21-.7,4.45-1.08,6.77-5.94.12-10.71-1.78-15.55-4-12.32-5.75-24.78-11.23-37.2-16.77a6.86,6.86,0,0,0-2.91-.58c-14.53.45-29.2,1.4-43.56,1.19-15.19-.22-26.21,8.59-39.56,11.61-3.54.8-7,1.91-10.6,2.54-5.77,1-11.26,1.06-15.38,7.19-3.78,5.62-12.33,2.94-15.48-3.61a10.45,10.45,0,0,0-4.52-4.49c-.67-.33-2,0-3.08.65a30.83,30.83,0,0,1,2.46,9.64c2,2.16,4.47,4.47,4.17,6.28-.82,4.93,1.89,11.58-5.09,14.51-1.17.49-1.91,1.93-3.06,2.52-2.16,1.11-4.45,2-6.69,3a28.27,28.27,0,0,1-4.11,2.93,32.83,32.83,0,0,1-4.39,2.11c-2.73,2.47-4.83,5.86-7.47,9.38a26.63,26.63,0,0,1-4.63,8.64c-3,10.52-6.23,21-9.13,31.55-1.4,5.11-2.25,10.38-3.22,15.61-.79,4.22-1.3,8.49-2.08,12.71-2.09,11.37-2,22.43,3.74,32.94,11.11,20.23,18.27,41.94,24.08,63.87-3.59,3.46-8.45,6-9.67,9.8-1.77,5.47-1.32,11.8-1.11,17.75.32,9.29,1.61,18.55,1.78,27.83.17,9.5,4,17.51,9.22,24.88,5.31,7.55,12.67,10.71,22.22,6.12a62.75,62.75,0,0,1,2.85,6.77c2.45,8.65,4.65,17.37,7.12,26a75.82,75.82,0,0,0,19.16,32.33c4,4.14,6.07,8.56,5.84,14.24a37.1,37.1,0,0,0,.41,6c1.21,10,.92,9.43-8.07,13.94-11.17,5.59-21.52,12.82-32.7,18.36-22.65,11.22-45.64,21.77-68.47,32.64-8.11,3.86-16.06,8.06-24.3,11.6-2.76,1.19-6.59,1.92-9.24,1-11.23-4.11-22.12-9.13-33.3-13.38-4.18-1.59-9-3.18-13.24-2.66-10.75,1.31-20-4.21-30.22-5.17a2.84,2.84,0,0,1-1.74-.92c-5.36-6.48-11.49-8-19.4-4.32-3.23,1.49-6.43-1.1-8.07-4.38-2.64-5.27-6.93-6.17-12.44-6.16-9.66,0-18.12-3.31-24.39-11.18-5-6.34-6.32-7.09-13.51-4.16-5.31,2.16-8.68,1.22-12.11-3a21.92,21.92,0,0,0-6.91-5.56c-7.25-3.68-7-3.48-6.17-11.65a79.66,79.66,0,0,1,12.59-36.27c6.66-10.32,11.6-21.71,12.46-34.42.24-3.57,1.6-7.07,2.69-11.59,4.19,0,8.44.2,12.66,0,9.08-.51,13.08-4.74,14.19-13.56,1.28-10.2,3.27-20.3,4.51-30.5a137.1,137.1,0,0,0,.53-16.7c0-3.31-.74-6.63-.67-9.94.12-5.3-.84-9.71-5.85-12.82-5.53-3.44-5.81-9.41-5.64-15.12.41-13.63,1.09-27.24,1.62-40.87.27-7,.54-13.93.64-20.9a25,25,0,0,0-.83-5.68c-.77-3.47-1.68-6.91-2.51-10.37-.08-.31.11-.71,0-1q-6.85-16.93-13.75-33.85c-1.21-3-2.83-5.78-3.75-8.83-2-6.54-4.75-12.36-10.81-16.21a48.73,48.73,0,0,1-6.82-5.76c-8.94-8.35-14.62-11.13-27-12.81-3-13.9-16.6-14.87-26.71-19.91-6.39-3.18-13.72-1.87-18.75,5.67-3.14-2.08-5.94-3.72-8.5-5.67-11.12-8.43-26.08-8.56-35.47,1.27-5.3,5.55-11.31,6.94-17.73,6.56-7-.42-11.17,1.25-13.75,8.25-2.51,6.82-9.52,7.58-15.75,8.63-4.39.74-8.84,1.1-13.07,3.33l14.49-1.33c-2.7,2.72-3.87,4.62-5.57,5.5-5.31,2.75-10.74,5.33-16.27,7.59-10.14,4.14-15.8,11.51-17,22.37a12,12,0,0,1-.87,3.84c-4.77,9.84-9.49,19.7-14.5,29.42-3.48,6.76-3.73,13.6-3.23,21.12,1.16,17.57,1.33,35.22,1.51,52.84,0,3.49-1.65,7-2.48,10.22-11.44,2.75-14.92,6.39-15,17.75-.12,11.53-1.62,23.24,3.66,34.4,1.61,3.39.74,7.89,1.39,11.82,1.93,11.51,9,17.77,20.68,18.71l7.34.57c3.11,13.8,6.29,27.32,9.1,40.9.51,2.46-.7,5.23-.75,7.86-.07,3.59-.55,7.43.46,10.76,5.57,18.29-.28,26.94-18.92,27.32-3.71,4.8-10.92,8.19-7,16.66-.74-.88-2.09-1.74-2.13-2.64-.25-6.64-5.06-8.53-10.1-10.73-4.85-2.11-9-1.44-13.19,1.34-1.37.91-3,2.25-4.45,2.11-11.76-1.19-22.59,4.12-34.08,4.68-2.95.14-6.38-.08-8.72,1.32-7.16,4.27-15,5-22.94,6-3.25.43-7,.68-9.52,2.42-8.5,5.78-18.14,6.12-27.68,6.49-29.11,1.13-56.59,7.06-80.48,25-7.42,5.58-15.4,10.41-22.91,15.87-2.49,1.81-4.32,4.54-7.54,8,8.68,2.24,13.85,6.39,16.62,14.23l-7.57.42v7.27c-3.72-1.51-6.59-3.17-9.66-3.77-2.61-.51-5.46.21-8.5,2.25l7.16,4.44c-12.42-.89-15.44,9.34-20.65,17.49,9,8.72,14.29-2.84,22.71-3.05l-8-7c8.35-1.83,18.4,5.41,28.92,20.18l-3,8c-7.59,1.32-12.91-5.74-20-6.49l13.81,16c-1.58-.12-3.43.19-4.86-.45-4.86-2.16-9.88-4.2-14.21-7.2-2.43-1.69-4-5-5.3-7.88-3-6.47-6-7.55-13.83-3.79l9.67,7.33c-3.39,0-5.86.42-8.12-.09-4.11-.94-6.86.89-7.86,4.27s-1.58,7.39,2.27,10,7.67,5.14,11.48,7.75c1.27.87,2.45,1.87,4.24,3.25l-23.65-1.66L86,663l10.27,7.44-15-1.76,11.08,15.44-13.25-1.28-4.62,6.06,10.76,4.54L72,696.13l-.2,2.13,7.46,4.38c-.93,2-2,3.64-2.46,5.47-.4,1.66-.08,3.49-.08,5.27l-3.59.31c0,.55-.13,1.05,0,1.15,11.1,7.47,22.22,14.9,34.58,23.17-13.61-2.49-23.19-12.8-36.31-12-.4,0-.74,1-1.46,2.06,3.15,5.62,9.84,5.55,14.49,9.74l-22.12-3.07L48.23,756.15l7.24,8c4.13-4.35,8.73-4.37,13.69-2.73q9.91,3.27,19.92,6.23c8.55,2.54,17.19,4.77,25.67,7.49a25.92,25.92,0,0,1,9,5.55c-6.59,3.23-10.87-2.26-16.12-3.71-6.06-1.67-12.13-3.36-18.12-5.3-5.69-1.84-11.27-4-16.89-6.06l.09.09a1.54,1.54,0,0,0-.85-.17c-8.69,2.94-17.42,3.85-25.79.12-6.47,8.09-5.72,11.11,2.76,13.86,5,1.62,10.2,2.88,14.94,5.08,6.74,3.13,6.53,6.1-.48,11.15l22.06,15.08L85,812a42.15,42.15,0,0,1-5.57-2.23c-4.89-2.79-9.46-6.26-14.57-8.54-5.41-2.41-9.93-5.25-11.78-11.55l6.82-3.43c-5.45-1.27-11.35-3.17-11.59-2.61-2.91,6.7-8.82.61-11.59,2.71L28.22,811c8.52,8.27,21.92,1.37,31.26,8.68-10.65,5-10.64,5-20.49.83a50.05,50.05,0,0,0-6.54-2.43c-6.74-1.81-8.65-.29-8.83,6.79,0,.93.27,2.49-.12,2.69-9.2,4.64-5.87,15.57-11.28,22.3-3.1,3.85-1.42,5.72,3.85,7.52,9.91,3.39,19.74,7,30.09,10.71-9.79,4.66-17.28,3.39-24.66-2.19-3.65-2.76-8.65-3.73-13-5.51l-1,2.12L16.18,867C13,872.3,5.71,863.84,3.36,872.77l10.93,2.08,6.77,7.23L.78,880.18,0,882.06l14.07,8.23c-1.29,5.61-2.14,11.49-4,17-4.47,13.3-4.32,26.93-3.2,40.55A36.78,36.78,0,0,0,11.42,962c5.06,9.24,6.84,18.92,4.38,28.93-2.79,11.36,1,20.05,8.5,28.13,4.74,5.14,8.79,10.9,13.49,16.08a74.93,74.93,0,0,0,11.6,10.9c8.09,5.76,17.09,6,25.41.82,16.85-10.53,35.35-16.86,54.07-22.9,24.41-7.87,46.32-20.21,65.1-37.85a37.61,37.61,0,0,1,4.21-2.81c.59,10.07,1.1,19.19,1.67,28.31,1,16.06-1.06,31.67-4.22,47.52-4.15,20.82-8.71,41.53-13,62.32-2.69,13.14-1.15,26.63,2.4,39.52,2,7.18,2.48,13.29-1.63,19.9-8.45,13.59-9.89,29.39-13.12,44.6-1,4.56-1.58,9.19-2.58,13.74-1.71,7.78-1.79,7.76,4.12,15-4.95,6.25-7.17,14.45-12.62,20.94-2.74,3.27-1.61,10,2,13.55,1.26,1.24,2.71,2.27,5.53,4.6L155,1294.66c.36,2.93.12,5.68,1.07,7.91,2.56,6,1.68,11.59-.09,17.53-1.31,4.41,0,10.94-2.7,13.3-3.84,3.37-4.53,7-5.79,11.07-3.25,10.68-2.18,21.14,1.95,31.13,5.07,12.29,9.65,25.08,16.83,36.09,6.22,9.53,15.71,16.95,23.94,25.11.92.91,3.7,1.43,4.49.77,4.78-4,8.63-1.44,12.69,1.14,1.08.68,2.58,1.39,3.71,1.17,9.07-1.76,16.87,2.87,25.24,4.64,14,3,28.2,4.83,42.06,8.21,24.36,5.93,49.11,9,73.94,11.64,2.81.3,5.58,1,10.06,1.89-11.2,5.55-21.27,4.17-31.37,2.56l-.24,2.33c2.25.46,4.67.56,6.72,1.48,2.51,1.13,5.8,2.43,6.8,4.57,1.61,3.47-2,5-4.61,6.5-.85.48-1.62,1.09-2.51,1.7l1.93,5.81-34,14.65.75,10.37-28.37,13.88.42,1.87c1.7.34,3.45,1.12,5.1.94,9.69-1.06,18.62-3.44,26.69-9.88,4.65-3.71,11.47-5.1,17.55-6.46,4.46-1,8.35-2,10.81-6.11,2.24-3.74,5.86-4.79,9.89-5.93,7.19-2,14-4.53,20.55-9.05,6.81-4.68,15.69-7,23.63-10.3s17.39-1.48,26-5.07c5.16-2.15,11.78-.56,17.65-1.34,3.51-.46,6.86-2.21,10.26-3.45,1.24-.45,2.55-1.78,3.59-1.56,10.38,2.21,19.46-2.84,29.07-4.88,1.5-.32,3.2.25,4.65.4.22,1.12.64,2.11.42,2.29-7.16,5.74-13.85,12.35-21.76,16.76-6.17,3.44-10.7,7.4-14,13.44a19.24,19.24,0,0,1-6.42,7.1c-8,4.76-16.2,9.06-24.45,13.31-8.55,4.39-17.17,8.65-25.88,12.7-8.21,3.81-16.53,7.2-19.9,16.85-.67,1.91-3,3.41-4.9,4.69-7.65,5.28-15.2,10.76-23.21,15.45-5.95,3.48-12.58,5.77-18.86,8.71-4.2,2-8.28,4.18-12.44,6.21-6.53,3.18-13.1,6.26-19.63,9.44-1.66.81-3.24,1.8-6.29,3.51,3.25,1.14,5,2.42,6.62,2.2,5.91-.8,12-1.44,17.58-3.37,7.19-2.48,14.7-5.14,20.77-9.52,11.58-8.37,25.29-11.76,37.59-18.2,7.82-4.1,14.49-10.4,21.7-15.69,4.27-3.14,8.35-6.6,12.91-9.27,8.86-5.19,18.36-9.35,26.91-15,10.19-6.72,19.63-14.57,29.46-21.85,2.66-2,5.56-3.6,8.35-5.4,6.24-4,13-7.7,9.06-16.76,3.74-2.89,7.14-1.65,7.94,1.24,1,3.81,4.37,8,.85,12.2-3.83,4.59-8.06,8.88-11.6,13.68-4.84,6.56-9.21,13.48-14.45,21.25l10,3.39c1.94,10.06,1.92,10-6.67,12.95-2.78.94-5.48,2.13-9.33,3.65l3.49,3.82c3.22,3.5,3.3,7.32.28,10.74a43.87,43.87,0,0,1-8.87,7.92c-8.06,5.19-16.41,9.94-24.88,15l.76,8.51c-8.94,6.45-20.58,8.27-30.48,16.57,3.47,1.39,5.49,2,7.31,3s5.08,2.41,5.08,3.65c0,2.28-1.32,5.7-3.13,6.63a114,114,0,0,1-17.51,7,62.46,62.46,0,0,1-14.47,3.06,24.45,24.45,0,0,1-10.37-2c-9.22-3.69-17.21-1.27-22.88,7.44H2770c-.7-24.11-6.62-47.41-11.08-70.93-4-20.91-8.37-41.73-12.53-62.6-.11-.55.3-1.21.47-1.82,11.93,9.15,21,7.76,29.59-5.25,3.11-4.73,5.87-7.8,12.2-8.19,7.68-.47,12.17-7.21,19-12.65-3.93-2.32-7-4-9.86-5.86a69,69,0,0,1-9.41-6.75c-4.38-4.07-8.21-8.73-12.54-12.87-1.71-1.64-4.13-2.55-7.3-4.42-.89,7.59-3.14,13.27.42,19.53,2,3.48,2.17,8,3.36,12.81-1.93-.51-3.31-.49-3.55-1-4.93-10.56-13.71-19.87-10.28-33.18.54-2.07-1.1-4.89-2.19-7.14-.85-1.75-2.6-3-3.63-4.73-7.3-12-5.88-19.67,5.23-27.83,3.2-2.35,7-4,10-6.52,4-3.38,4.7-7,1-10.24-17.23-15-15.37-36.58-19.5-56-1.18-5.56,2.24-9.81,8.92-11.1,11.08-2.14,22.28-4.14,33.51-4.88,9.92-.65,19.06-2.18,26-9.49,5.19,1.92,6.91,5.89,8.12,10.07a269,269,0,0,1,10.18,51.79c.53,6.12,4.5,11.94,7.5,19.37-3,5.62-1.53,12.92,1.65,20.87,1.43-.61,3.15-.85,4.1-1.84,10.92-11.32,16.5-24.25,12.13-40.29a57.09,57.09,0,0,1-1.88-12.71C2859.57,1360.63,2860.42,1357.64,2861.92,1356.57Z"/></g></g></svg>